<svg xmlns="http://www.w3.org/2000/svg" viewBox="0 0 140 190"><defs><style>.cls-1{fill:#fff;}</style></defs><g id="bkg"><path class="cls-1" d="M140,7V183q0,7-7,7H7q-7,0-7-7V7Q0,0,7,0H133q7,0,7,7"/></g><g id="face"><path d="M15,34V31.47a.91.91,0,0,1,.27-.63c2.4-2.4,4.53-4.89,6.54-7,1.62-1.8,2.73-3.39,2.73-4.5a2.44,2.44,0,0,0-2.7-2.4,2.45,2.45,0,0,0-2.7,2.46V20a.46.46,0,0,1-.51.51H15.34a.46.46,0,0,1-.51-.51V18.69c.18-3.33,3.12-5.43,7-5.43,4.35,0,7,2.67,7,5.94,0,1.74-.93,3.48-2.52,5.43s-3.48,3.84-5.55,6c-.12.09-.06.21.09.21h7.86a.46.46,0,0,1,.51.51V34a.46.46,0,0,1-.51.51H15.46A.46.46,0,0,1,15,34Zm110.1,122v2.52a.91.91,0,0,1-.27.63c-2.4,2.4-4.53,4.89-6.54,7.05-1.62,1.8-2.73,3.39-2.73,4.5a2.72,2.72,0,0,0,5.4-.06v-.6a.46.46,0,0,1,.51-.51h3.24a.46.46,0,0,1,.51.51v1.26c-.18,3.33-3.12,5.43-7,5.43-4.35,0-7-2.67-7-5.94,0-1.74.93-3.48,2.52-5.43s3.48-3.84,5.55-6c.12-.09.06-.21-.09-.21h-7.86a.46.46,0,0,1-.51-.51V156a.46.46,0,0,1,.51-.51h13.2A.46.46,0,0,1,125.05,156ZM26.25,46.42a4.11,4.11,0,0,0-1.06.15,4,4,0,0,0,.87-2.51,4.06,4.06,0,1,0-8.12,0,4,4,0,0,0,.87,2.51,4.11,4.11,0,0,0-1.06-.15,4.07,4.07,0,1,0,3.4,6.29l-2,4.79h5.62l-2-4.79a4.06,4.06,0,1,0,3.4-6.29Zm87.5,97.16a4.11,4.11,0,0,0,1.06-.15,4,4,0,0,0-.87,2.51,4.06,4.06,0,0,0,8.12,0,4,4,0,0,0-.87-2.51,4.11,4.11,0,0,0,1.06.15,4.07,4.07,0,1,0-3.4-6.29l2-4.79h-5.62l2,4.79a4.06,4.06,0,1,0-3.4,6.29ZM76.8,72.28a6.27,6.27,0,0,0-1.69.23,6.5,6.5,0,1,0-10.22,0,6.27,6.27,0,0,0-1.69-.23,6.5,6.5,0,1,0,5.43,10.06L65.5,90h9l-3.13-7.66A6.5,6.5,0,1,0,76.8,72.28Zm0,38a6.27,6.27,0,0,0-1.69.23,6.5,6.5,0,1,0-10.22,0,6.27,6.27,0,0,0-1.69-.23,6.5,6.5,0,1,0,5.43,10.06L65.5,128h9l-3.13-7.66a6.5,6.5,0,1,0,5.43-10.06Z"/></g></svg>