<svg xmlns="http://www.w3.org/2000/svg" viewBox="0 0 140 190"><defs><style>.cls-1{fill:#fff;}.cls-2{fill:#c93f3f;}</style></defs><g id="bkg"><path class="cls-1" d="M140,7V183q0,7-7,7H7q-7,0-7-7V7Q0,0,7,0H133q7,0,7,7"/></g><g id="face"><path class="cls-2" d="M13,13.5h3.4a.45.45,0,0,1,.5.51V34a.45.45,0,0,1-.5.51H13.17a.45.45,0,0,1-.51-.51V17.64a.17.17,0,0,0-.21-.18L9.8,18a.43.43,0,0,1-.56-.45V15.27a.55.55,0,0,1,.38-.57l2.74-1.08A1.43,1.43,0,0,1,13,13.5ZM19.92,28V20c0-4.17,2.72-6.78,7.13-6.78s7.17,2.61,7.17,6.78V28c0,4.23-2.76,6.87-7.17,6.87S19.92,32.19,19.92,28ZM30,28.17V19.92a2.78,2.78,0,0,0-2.94-3,2.78,2.78,0,0,0-2.91,3v8.25a2.78,2.78,0,0,0,2.91,3A2.78,2.78,0,0,0,30,28.17ZM127,176.5h-3.4a.45.45,0,0,1-.5-.51V156a.45.45,0,0,1,.5-.51h3.21a.45.45,0,0,1,.51.51v16.35a.17.17,0,0,0,.21.18l2.65-.54a.43.43,0,0,1,.56.45v2.28a.55.55,0,0,1-.38.57l-2.74,1.08A1.43,1.43,0,0,1,127,176.5ZM120.08,162V170c0,4.17-2.72,6.78-7.13,6.78s-7.17-2.61-7.17-6.78V162c0-4.23,2.76-6.87,7.17-6.87S120.08,157.81,120.08,162ZM110,161.83v8.25a2.93,2.93,0,1,0,5.85,0v-8.25a2.93,2.93,0,1,0-5.85,0ZM30.12,48.75,22,40l-8.12,8.75L22,57.5Zm79.76,92.5L118,150l8.12-8.75L118,132.5ZM65,76,52,62,39,76,52,90Zm36,0L88,62,75,76,88,90ZM65,28,52,14,39,28,52,42Zm36,0L88,14,75,28,88,42ZM83,52,70,38,57,52,70,66ZM65,162,52,148,39,162l13,14Zm36,0L88,148,75,162l13,14ZM65,114,52,100,39,114l13,14Zm36,0L88,100,75,114l13,14ZM83,138,70,124,57,138l13,14Z"/></g></svg>