<svg xmlns="http://www.w3.org/2000/svg" viewBox="0 0 140 190"><defs><style>.cls-1{fill:#fff;}</style></defs><g id="bkg"><path class="cls-1" d="M140,7V183q0,7-7,7H7q-7,0-7-7V7Q0,0,7,0H133q7,0,7,7"/></g><g id="face"><path d="M28.71,20.25v9c0,3.3-2.76,5.46-6.75,5.46s-6.6-2.16-6.6-5.37v-.69a.46.46,0,0,1,.51-.51h3.21c.32,0,.5.12.5.3v.33A2.26,2.26,0,0,0,22,31.11a2.36,2.36,0,0,0,2.51-2.4V26c0-.15-.09-.21-.21-.09a4.94,4.94,0,0,1-3.23,1,5.89,5.89,0,0,1-5.47-3.21,7.32,7.32,0,0,1-.71-3.45,8,8,0,0,1,.57-3.12,6.52,6.52,0,0,1,6.32-3.81,6.48,6.48,0,0,1,6.42,4A7.77,7.77,0,0,1,28.71,20.25Zm-4.26-.15a3.92,3.92,0,0,0-.4-1.83A2.35,2.35,0,0,0,21.78,17a2.36,2.36,0,0,0-2.25,1.32,3.65,3.65,0,0,0-.45,1.89,3.94,3.94,0,0,0,.47,2,2.42,2.42,0,0,0,2.19,1.2A2.32,2.32,0,0,0,24,22.11,4.21,4.21,0,0,0,24.45,20.1Zm86.84,149.65v-9c0-3.3,2.76-5.46,6.75-5.46s6.6,2.16,6.6,5.37v.69a.46.46,0,0,1-.51.51h-3.21c-.32,0-.5-.12-.5-.3v-.33a2.26,2.26,0,0,0-2.38-2.31,2.36,2.36,0,0,0-2.51,2.4v2.76c0,.15.09.21.21.09a4.94,4.94,0,0,1,3.23-1,5.89,5.89,0,0,1,5.47,3.21,7.32,7.32,0,0,1,.71,3.45,8,8,0,0,1-.57,3.12,7.14,7.14,0,0,1-12.74-.21A7.77,7.77,0,0,1,111.29,169.75Zm4.26.15a3.92,3.92,0,0,0,.4,1.83,2.59,2.59,0,0,0,4.52,0,3.65,3.65,0,0,0,.45-1.89,3.94,3.94,0,0,0-.47-2,2.42,2.42,0,0,0-2.19-1.2,2.32,2.32,0,0,0-2.25,1.23A4.21,4.21,0,0,0,115.55,169.9ZM26.25,46.42a4.11,4.11,0,0,0-1.06.15,4,4,0,0,0,.87-2.51,4.06,4.06,0,1,0-8.12,0,4,4,0,0,0,.87,2.51,4.11,4.11,0,0,0-1.06-.15,4.07,4.07,0,1,0,3.4,6.29l-2,4.79h5.62l-2-4.79a4.06,4.06,0,1,0,3.4-6.29Zm87.5,97.16a4.11,4.11,0,0,0,1.06-.15,4,4,0,0,0-.87,2.51,4.06,4.06,0,0,0,8.12,0,4,4,0,0,0-.87-2.51,4.11,4.11,0,0,0,1.06.15,4.07,4.07,0,1,0-3.4-6.29l2-4.79h-5.62l2,4.79a4.06,4.06,0,1,0-3.4,6.29ZM58.5,67.28a6.27,6.27,0,0,0-1.69.23,6.5,6.5,0,1,0-10.22,0,6.27,6.27,0,0,0-1.69-.23,6.5,6.5,0,1,0,5.43,10.06L47.2,85h9l-3.13-7.66A6.5,6.5,0,1,0,58.5,67.28Zm36.6,0a6.27,6.27,0,0,0-1.69.23,6.5,6.5,0,1,0-10.22,0,6.27,6.27,0,0,0-1.69-.23,6.5,6.5,0,1,0,5.43,10.06L83.8,85h9l-3.13-7.66A6.5,6.5,0,1,0,95.1,67.28Zm-36.6-38a6.27,6.27,0,0,0-1.69.23,6.5,6.5,0,1,0-10.22,0,6.27,6.27,0,0,0-1.69-.23,6.5,6.5,0,1,0,5.43,10.06L47.2,47h9l-3.13-7.66A6.5,6.5,0,1,0,58.5,29.28Zm36.6,0a6.27,6.27,0,0,0-1.69.23,6.5,6.5,0,1,0-10.22,0,6.27,6.27,0,0,0-1.69-.23,6.5,6.5,0,1,0,5.43,10.06L83.8,47h9l-3.13-7.66A6.5,6.5,0,1,0,95.1,29.28Zm-36.6,86a6.27,6.27,0,0,0-1.69.23,6.5,6.5,0,1,0-10.22,0,6.27,6.27,0,0,0-1.69-.23,6.5,6.5,0,1,0,5.43,10.06L47.2,133h9l-3.13-7.66a6.5,6.5,0,1,0,5.43-10.06Zm36.6,0a6.27,6.27,0,0,0-1.69.23,6.5,6.5,0,1,0-10.22,0,6.27,6.27,0,0,0-1.69-.23,6.5,6.5,0,1,0,5.43,10.06L83.8,133h9l-3.13-7.66a6.5,6.5,0,1,0,5.43-10.06Zm-36.6,38a6.27,6.27,0,0,0-1.69.23,6.5,6.5,0,1,0-10.22,0,6.27,6.27,0,0,0-1.69-.23,6.5,6.5,0,1,0,5.43,10.06L47.2,171h9l-3.13-7.66a6.5,6.5,0,1,0,5.43-10.06Zm36.6,0a6.27,6.27,0,0,0-1.69.23,6.5,6.5,0,1,0-10.22,0,6.27,6.27,0,0,0-1.69-.23,6.5,6.5,0,1,0,5.43,10.06L83.8,171h9l-3.13-7.66a6.5,6.5,0,1,0,5.43-10.06Zm-18.3-62a6.27,6.27,0,0,0-1.69.23,6.5,6.5,0,1,0-10.22,0,6.27,6.27,0,0,0-1.69-.23,6.5,6.5,0,1,0,5.43,10.06L65.5,109h9l-3.13-7.66A6.5,6.5,0,1,0,76.8,91.28Z"/></g></svg>