<svg xmlns="http://www.w3.org/2000/svg" viewBox="0 0 140 190"><defs><style>.cls-1{fill:#fff;}.cls-2{fill:#c93f3f;}</style></defs><g id="bkg"><path class="cls-1" d="M140,7V183q0,7-7,7H7q-7,0-7-7V7Q0,0,7,0H133q7,0,7,7"/></g><g id="face"><path class="cls-2" d="M29.09,27.78a7.52,7.52,0,0,1-.48,2.76,6.59,6.59,0,0,1-6.51,4.17,6.61,6.61,0,0,1-6.45-4.08,7.12,7.12,0,0,1-.42-1.5.44.44,0,0,1,.48-.54H19a.55.55,0,0,1,.57.42,3.52,3.52,0,0,0,.15.42,2.49,2.49,0,0,0,4.56.24,4.62,4.62,0,0,0,.24-.57,3.92,3.92,0,0,0,.21-1.23,4.06,4.06,0,0,0-.27-1.65,2.25,2.25,0,0,0-2.4-1.62,2.61,2.61,0,0,0-2.31,1.11.63.63,0,0,1-.6.39H15.75a.47.47,0,0,1-.52-.51V14a.47.47,0,0,1,.52-.51H27.83a.46.46,0,0,1,.51.51v2.61a.46.46,0,0,1-.51.51H19.65a.2.2,0,0,0-.19.18l0,4.35c0,.15.09.21.22.12a5.85,5.85,0,0,1,3.08-.84,6,6,0,0,1,5.91,4A9.87,9.87,0,0,1,29.09,27.78Zm81.82,134.44a7.52,7.52,0,0,1,.48-2.76,7.15,7.15,0,0,1,13-.09,7.12,7.12,0,0,1,.42,1.5.44.44,0,0,1-.48.54H121a.55.55,0,0,1-.57-.42,3.52,3.52,0,0,0-.15-.42,2.49,2.49,0,0,0-4.56-.24,4.62,4.62,0,0,0-.24.57,3.92,3.92,0,0,0-.21,1.23,4.06,4.06,0,0,0,.27,1.65,2.25,2.25,0,0,0,2.4,1.62,2.61,2.61,0,0,0,2.31-1.11.63.63,0,0,1,.6-.39h3.44a.47.47,0,0,1,.52.51V176a.47.47,0,0,1-.52.51H112.17a.46.46,0,0,1-.51-.51v-2.61a.46.46,0,0,1,.51-.51h8.18a.2.2,0,0,0,.19-.18l0-4.35c0-.15-.09-.21-.22-.12a5.85,5.85,0,0,1-3.08.84,6,6,0,0,1-5.91-4A9.87,9.87,0,0,1,110.91,162.22Zm-88-120.94A4.37,4.37,0,0,0,22,42.56a4.37,4.37,0,1,0-7.07,4.91L22,54.54l7.07-7.07a4.38,4.38,0,1,0-6.19-6.19Zm94.24,107.44a4.37,4.37,0,0,0,.88-1.28,4.37,4.37,0,1,0,7.07-4.91L118,135.46l-7.07,7.07a4.38,4.38,0,0,0,6.19,6.19ZM53.05,107.05a6.84,6.84,0,0,0-1.41,2A7,7,0,1,0,40.32,117l11.32,11.31L63,117a7,7,0,0,0-9.9-9.9Zm36.73,0a7.06,7.06,0,0,0-1.42,2,6.84,6.84,0,0,0-1.41-2,7,7,0,0,0-9.9,9.9l11.31,11.31L99.68,117a7,7,0,0,0-9.9-9.9ZM53.05,63.79a6.71,6.71,0,0,0-1.41,2.05,7,7,0,0,0-11.32-2.05,7,7,0,0,0,0,9.9L51.64,85,63,73.69a7,7,0,1,0-9.9-9.9Zm36.73,0a6.93,6.93,0,0,0-1.42,2.05A6.71,6.71,0,0,0,87,63.79a7,7,0,1,0-9.9,9.9L88.36,85,99.68,73.69a7,7,0,1,0-9.9-9.9ZM71.41,85.42a7,7,0,0,0-1.41,2,7,7,0,1,0-11.31,7.85L70,106.63,81.31,95.32a7,7,0,0,0-9.9-9.9Z"/></g></svg>