<svg xmlns="http://www.w3.org/2000/svg" viewBox="0 0 140 190"><defs><style>.cls-1{fill:#fff;}.cls-2{fill:#c93f3f;}</style></defs><g id="bkg"><path class="cls-1" d="M140,7V183q0,7-7,7H7q-7,0-7-7V7Q0,0,7,0H133q7,0,7,7"/></g><g id="face"><path class="cls-2" d="M29.06,27.78a8.16,8.16,0,0,1-.57,3.12,6.53,6.53,0,0,1-6.32,3.81,6.48,6.48,0,0,1-6.42-4,7.77,7.77,0,0,1-.54-2.94v-9c0-3.3,2.76-5.46,6.75-5.46s6.59,2.16,6.59,5.37v.69a.46.46,0,0,1-.51.51H24.83c-.33,0-.51-.15-.51-.33v-.3A2.25,2.25,0,0,0,22,16.89a2.36,2.36,0,0,0-2.52,2.4v2.76c0,.15.08.21.21.09a4.94,4.94,0,0,1,3.23-1,5.89,5.89,0,0,1,5.46,3.21A7.32,7.32,0,0,1,29.06,27.78Zm-4.23.06a3.85,3.85,0,0,0-.48-2,2.39,2.39,0,0,0-2.18-1.2,2.3,2.3,0,0,0-2.25,1.23,4.1,4.1,0,0,0-.46,2,3.92,3.92,0,0,0,.39,1.83,2.35,2.35,0,0,0,2.28,1.32,2.35,2.35,0,0,0,2.25-1.32A3.65,3.65,0,0,0,24.83,27.84Zm86.11,134.38a8.16,8.16,0,0,1,.57-3.12,7.14,7.14,0,0,1,12.74.21,7.77,7.77,0,0,1,.54,2.94v9c0,3.3-2.76,5.46-6.75,5.46s-6.59-2.16-6.59-5.37v-.69a.46.46,0,0,1,.51-.51h3.21c.33,0,.51.15.51.33v.3a2.25,2.25,0,0,0,2.36,2.31,2.36,2.36,0,0,0,2.52-2.4V168c0-.15-.08-.21-.21-.09a4.94,4.94,0,0,1-3.23,1,5.89,5.89,0,0,1-5.46-3.21A7.32,7.32,0,0,1,110.94,162.22Zm4.23-.06a3.85,3.85,0,0,0,.48,2,2.39,2.39,0,0,0,2.18,1.2,2.3,2.3,0,0,0,2.25-1.23,4.1,4.1,0,0,0,.46-2,3.92,3.92,0,0,0-.39-1.83,2.6,2.6,0,0,0-4.53,0A3.65,3.65,0,0,0,115.17,162.16ZM22.88,41.28A4.37,4.37,0,0,0,22,42.56a4.37,4.37,0,1,0-7.07,4.91L22,54.54l7.07-7.07a4.38,4.38,0,1,0-6.19-6.19Zm94.24,107.44a4.37,4.37,0,0,0,.88-1.28,4.37,4.37,0,1,0,7.07-4.91L118,135.46l-7.07,7.07a4.38,4.38,0,0,0,6.19,6.19ZM53.05,85.42a6.84,6.84,0,0,0-1.41,2,7,7,0,1,0-11.32,7.85l11.32,11.31L63,95.32a7,7,0,0,0-9.9-9.9Zm0,33.26a6.84,6.84,0,0,0-1.41,2,7,7,0,1,0-11.32,7.85L51.64,139.9,63,128.58a7,7,0,0,0-9.9-9.9Zm0-66.52a6.79,6.79,0,0,0-1.41,2,7,7,0,1,0-11.32,7.85L51.64,73.37,63,62.05a7,7,0,0,0-9.9-9.89ZM89.78,85.42a7.06,7.06,0,0,0-1.42,2,6.84,6.84,0,0,0-1.41-2,7,7,0,0,0-9.9,9.9l11.31,11.31L99.68,95.32a7,7,0,0,0-9.9-9.9Zm0,33.26a7.06,7.06,0,0,0-1.42,2,6.84,6.84,0,0,0-1.41-2,7,7,0,0,0-9.9,9.9L88.36,139.9l11.32-11.32a7,7,0,0,0-9.9-9.9Zm0-66.52a7,7,0,0,0-1.42,2,6.79,6.79,0,0,0-1.41-2,7,7,0,0,0-9.9,9.89L88.36,73.37,99.68,62.05a7,7,0,0,0-9.9-9.89Z"/></g></svg>