<svg xmlns="http://www.w3.org/2000/svg" viewBox="0 0 140 190"><defs><style>.cls-1{fill:#fff;}.cls-2{fill:#c93f3f;}</style></defs><g id="bkg"><path class="cls-1" d="M140,7V183q0,7-7,7H7q-7,0-7-7V7Q0,0,7,0H133q7,0,7,7"/></g><g id="face"><path class="cls-2" d="M19.76,34.5a.19.19,0,0,1,.15.18v2.25a.46.46,0,0,0,.51.51h3.21a.46.46,0,0,0,.51-.51V34.65a.2.2,0,0,1,.15-.18,6.8,6.8,0,0,0,5.37-7V20.79c0-4.53-3.06-7.53-7.68-7.53s-7.65,3-7.65,7.53v6.72A6.86,6.86,0,0,0,19.76,34.5Zm-1.2-13.92a3.44,3.44,0,1,1,6.87,0v6.84a3.44,3.44,0,1,1-6.87,0ZM120.24,155.5a.19.19,0,0,1-.15-.18v-2.25a.46.46,0,0,0-.51-.51h-3.21a.46.46,0,0,0-.51.51v2.28a.2.2,0,0,1-.15.18,6.8,6.8,0,0,0-5.37,7v6.72c0,4.53,3.06,7.53,7.68,7.53s7.65-3,7.65-7.53v-6.72A6.86,6.86,0,0,0,120.24,155.5Zm1.2,13.92a3.44,3.44,0,1,1-6.87,0v-6.84a3.44,3.44,0,1,1,6.87,0ZM40,115h60v10H40Zm70.5-35a4,4,0,0,1-4.85,3.91l-5.48,25.3a1,1,0,0,1-1,.79H40.81a1,1,0,0,1-1-.79l-5.48-25.3A4,4,0,1,1,37.5,80a4,4,0,0,1-1.33,3l5.11,5.68a1,1,0,0,0,1.7-.4l4-14.4a4,4,0,1,1,3.35-.57l7.21,10.3a1,1,0,0,0,1.73-.15l9.1-19.79a4,4,0,1,1,3.34,0l9.1,19.79a1,1,0,0,0,1.73.15l7.21-10.3a4,4,0,1,1,3.35.57l4,14.4a1,1,0,0,0,1.7.4L103.83,83a4,4,0,1,1,6.67-3ZM30.12,48.75,22,57.5l-8.12-8.75L22,40ZM118,150l-8.12-8.75L118,132.5l8.12,8.75Z"/></g></svg>