<svg xmlns="http://www.w3.org/2000/svg" viewBox="0 0 140 190"><defs><style>.cls-1{fill:#fff;}.cls-2{fill:#c93f3f;}</style></defs><g id="bkg"><path class="cls-1" d="M140,7V183q0,7-7,7H7q-7,0-7-7V7Q0,0,7,0H133q7,0,7,7"/></g><g id="face"><path class="cls-2" d="M70,109,57,95,70,81,83,95ZM30.12,48.75,22,40l-8.12,8.75L22,57.5Zm79.76,92.5L118,150l8.12-8.75L118,132.5ZM27.26,34.5h3.48c.36,0,.54-.24.42-.57l-6.39-20a.55.55,0,0,0-.57-.42H19.79a.55.55,0,0,0-.57.42l-6.39,20a.4.4,0,0,0,.42.57h3.48a.55.55,0,0,0,.57-.42l.85-2.79c0-.12.08-.15.17-.15h7.35c.09,0,.15,0,.18.15l.84,2.79A.55.55,0,0,0,27.26,34.5Zm-8.07-6.84,2.67-9.15c.06-.15.18-.15.24,0l2.7,9.15c0,.15,0,.21-.15.21H19.34C19.22,27.87,19.16,27.81,19.19,27.66ZM112.74,155.5h-3.48c-.36,0-.54.24-.42.57l6.39,20a.55.55,0,0,0,.57.42h4.41a.55.55,0,0,0,.57-.42l6.39-20a.4.4,0,0,0-.42-.57h-3.48a.55.55,0,0,0-.57.42l-.85,2.79c0,.12-.08.15-.17.15h-7.35c-.09,0-.15,0-.18-.15l-.84-2.79A.55.55,0,0,0,112.74,155.5Zm8.07,6.84-2.67,9.15c-.06.15-.18.15-.24,0l-2.7-9.15c0-.15,0-.21.15-.21h5.31C120.78,162.13,120.84,162.19,120.81,162.34Z"/></g></svg>