<svg xmlns="http://www.w3.org/2000/svg" viewBox="0 0 140 190"><defs><style>.cls-1{fill:#fff;}</style></defs><g id="bkg"><path class="cls-1" d="M140,7V183q0,7-7,7H7q-7,0-7-7V7Q0,0,7,0H133q7,0,7,7"/></g><g id="face"><path d="M29.09,27.78a7.52,7.52,0,0,1-.48,2.76,6.59,6.59,0,0,1-6.51,4.17,6.61,6.61,0,0,1-6.45-4.08,7.12,7.12,0,0,1-.42-1.5.44.44,0,0,1,.48-.54H19a.55.55,0,0,1,.57.42,3.52,3.52,0,0,0,.15.42,2.49,2.49,0,0,0,4.56.24,4.62,4.62,0,0,0,.24-.57,3.92,3.92,0,0,0,.21-1.23,4.06,4.06,0,0,0-.27-1.65,2.25,2.25,0,0,0-2.4-1.62,2.61,2.61,0,0,0-2.31,1.11.63.63,0,0,1-.6.39H15.75a.47.47,0,0,1-.52-.51V14a.47.47,0,0,1,.52-.51H27.83a.46.46,0,0,1,.51.51v2.61a.46.46,0,0,1-.51.51H19.65a.2.2,0,0,0-.19.18l0,4.35c0,.15.09.21.22.12a5.85,5.85,0,0,1,3.08-.84,6,6,0,0,1,5.91,4A9.87,9.87,0,0,1,29.09,27.78Zm81.82,134.44a7.52,7.52,0,0,1,.48-2.76,7.15,7.15,0,0,1,13-.09,7.12,7.12,0,0,1,.42,1.5.44.44,0,0,1-.48.54H121a.55.55,0,0,1-.57-.42,3.52,3.52,0,0,0-.15-.42,2.49,2.49,0,0,0-4.56-.24,4.62,4.62,0,0,0-.24.57,3.92,3.92,0,0,0-.21,1.23,4.06,4.06,0,0,0,.27,1.65,2.25,2.25,0,0,0,2.4,1.62,2.61,2.61,0,0,0,2.31-1.11.63.63,0,0,1,.6-.39h3.44a.47.47,0,0,1,.52.51V176a.47.47,0,0,1-.52.51H112.17a.46.46,0,0,1-.51-.51v-2.61a.46.46,0,0,1,.51-.51h8.18a.2.2,0,0,0,.19-.18l0-4.35c0-.15-.09-.21-.22-.12a5.85,5.85,0,0,1-3.08.84,6,6,0,0,1-5.91-4A9.87,9.87,0,0,1,110.91,162.22ZM26.25,46.42a4.11,4.11,0,0,0-1.06.15,4,4,0,0,0,.87-2.51,4.06,4.06,0,1,0-8.12,0,4,4,0,0,0,.87,2.51,4.11,4.11,0,0,0-1.06-.15,4.07,4.07,0,1,0,3.4,6.29l-2,4.79h5.62l-2-4.79a4.06,4.06,0,1,0,3.4-6.29Zm87.5,97.16a4.11,4.11,0,0,0,1.06-.15,4,4,0,0,0-.87,2.51,4.06,4.06,0,0,0,8.12,0,4,4,0,0,0-.87-2.51,4.11,4.11,0,0,0,1.06.15,4.07,4.07,0,1,0-3.4-6.29l2-4.79h-5.62l2,4.79a4.06,4.06,0,1,0-3.4,6.29ZM58.5,67.28a6.27,6.27,0,0,0-1.69.23,6.5,6.5,0,1,0-10.22,0,6.27,6.27,0,0,0-1.69-.23,6.5,6.5,0,1,0,5.43,10.06L47.2,85h9l-3.13-7.66A6.5,6.5,0,1,0,58.5,67.28Zm36.6,0a6.27,6.27,0,0,0-1.69.23,6.5,6.5,0,1,0-10.22,0,6.27,6.27,0,0,0-1.69-.23,6.5,6.5,0,1,0,5.43,10.06L83.8,85h9l-3.13-7.66A6.5,6.5,0,1,0,95.1,67.28Zm-36.6,48a6.27,6.27,0,0,0-1.69.23,6.5,6.5,0,1,0-10.22,0,6.27,6.27,0,0,0-1.69-.23,6.5,6.5,0,1,0,5.43,10.06L47.2,133h9l-3.13-7.66a6.5,6.5,0,1,0,5.43-10.06Zm36.6,0a6.27,6.27,0,0,0-1.69.23,6.5,6.5,0,1,0-10.22,0,6.27,6.27,0,0,0-1.69-.23,6.5,6.5,0,1,0,5.43,10.06L83.8,133h9l-3.13-7.66a6.5,6.5,0,1,0,5.43-10.06Zm-18.3-24a6.27,6.27,0,0,0-1.69.23,6.5,6.5,0,1,0-10.22,0,6.27,6.27,0,0,0-1.69-.23,6.5,6.5,0,1,0,5.43,10.06L65.5,109h9l-3.13-7.66A6.5,6.5,0,1,0,76.8,91.28Z"/></g></svg>