<svg xmlns="http://www.w3.org/2000/svg" viewBox="0 0 140 190"><defs><style>.cls-1{fill:#fff;}.cls-2{fill:#c93f3f;}</style></defs><g id="bkg"><path class="cls-1" d="M140,7V183q0,7-7,7H7q-7,0-7-7V7Q0,0,7,0H133q7,0,7,7"/></g><g id="face"><path class="cls-2" d="M28.81,27.66a8.12,8.12,0,0,1-.54,3,6.53,6.53,0,0,1-6.42,4.08,6.65,6.65,0,0,1-6.48-4.23,8.13,8.13,0,0,1-.48-2.37.46.46,0,0,1,.51-.51h3.24a.51.51,0,0,1,.54.51,4.48,4.48,0,0,0,.3,1.32,2.37,2.37,0,0,0,2.34,1.65,2.34,2.34,0,0,0,2.31-1.47,5.14,5.14,0,0,0,.42-2.1,5.37,5.37,0,0,0-.48-2.31,2.33,2.33,0,0,0-2.28-1.41,2.67,2.67,0,0,0-1.38.57.49.49,0,0,1-.72-.12L18.1,22.14a.49.49,0,0,1,.06-.72l4.68-4.08c.12-.09.06-.21-.09-.21H15.82a.46.46,0,0,1-.51-.51V14a.46.46,0,0,1,.51-.51H28a.46.46,0,0,1,.51.51V17a.86.86,0,0,1-.27.63l-3.93,3.57c-.12.12-.06.21.12.24a5,5,0,0,1,3.75,3.09A8,8,0,0,1,28.81,27.66Zm82.38,134.68a8.12,8.12,0,0,1,.54-3,6.53,6.53,0,0,1,6.42-4.08,6.65,6.65,0,0,1,6.48,4.23,8.13,8.13,0,0,1,.48,2.37.46.46,0,0,1-.51.51h-3.24a.51.51,0,0,1-.54-.51,4.48,4.48,0,0,0-.3-1.32,2.37,2.37,0,0,0-2.34-1.65,2.34,2.34,0,0,0-2.31,1.47,5.14,5.14,0,0,0-.42,2.1,5.37,5.37,0,0,0,.48,2.31,2.33,2.33,0,0,0,2.28,1.41,2.67,2.67,0,0,0,1.38-.57.49.49,0,0,1,.72.12l1.59,2.13a.49.49,0,0,1-.06.72l-4.68,4.08c-.12.09-.06.21.09.21h6.93a.46.46,0,0,1,.51.51V176a.46.46,0,0,1-.51.51H112a.46.46,0,0,1-.51-.51v-2.94a.86.86,0,0,1,.27-.63l3.93-3.57c.12-.12.06-.21-.12-.24a5,5,0,0,1-3.75-3.09A8,8,0,0,1,111.19,162.34ZM22.88,41.28A4.37,4.37,0,0,0,22,42.56a4.37,4.37,0,1,0-7.07,4.91L22,54.54l7.07-7.07a4.38,4.38,0,1,0-6.19-6.19Zm94.24,107.44a4.37,4.37,0,0,0,.88-1.28,4.37,4.37,0,1,0,7.07-4.91L118,135.46l-7.07,7.07a4.38,4.38,0,0,0,6.19,6.19ZM71.41,85.42a7,7,0,0,0-1.41,2,7,7,0,1,0-11.31,7.85L70,106.63,81.31,95.32a7,7,0,0,0-9.9-9.9Zm0,33.26a7,7,0,0,0-1.41,2,7,7,0,1,0-11.31,7.85L70,139.9l11.31-11.32a7,7,0,0,0-9.9-9.9Zm0-66.52a7,7,0,0,0-1.41,2,7,7,0,1,0-11.31,7.85L70,73.37,81.31,62.05a7,7,0,0,0-9.9-9.89Z"/></g></svg>