<svg xmlns="http://www.w3.org/2000/svg" viewBox="0 0 140 190"><defs><style>.cls-1{fill:#fff;}</style></defs><g id="bkg"><path class="cls-1" d="M140,7V183q0,7-7,7H7q-7,0-7-7V7Q0,0,7,0H133q7,0,7,7"/></g><g id="face"><path d="M29.06,27.78a8.16,8.16,0,0,1-.57,3.12,6.53,6.53,0,0,1-6.32,3.81,6.48,6.48,0,0,1-6.42-4,7.77,7.77,0,0,1-.54-2.94v-9c0-3.3,2.76-5.46,6.75-5.46s6.59,2.16,6.59,5.37v.69a.46.46,0,0,1-.51.51H24.83c-.33,0-.51-.15-.51-.33v-.3A2.25,2.25,0,0,0,22,16.89a2.36,2.36,0,0,0-2.52,2.4v2.76c0,.15.08.21.21.09a4.94,4.94,0,0,1,3.23-1,5.89,5.89,0,0,1,5.46,3.21A7.32,7.32,0,0,1,29.06,27.78Zm-4.23.06a3.85,3.85,0,0,0-.48-2,2.39,2.39,0,0,0-2.18-1.2,2.3,2.3,0,0,0-2.25,1.23,4.1,4.1,0,0,0-.46,2,3.92,3.92,0,0,0,.39,1.83,2.35,2.35,0,0,0,2.28,1.32,2.35,2.35,0,0,0,2.25-1.32A3.65,3.65,0,0,0,24.83,27.84Zm4.24,19.23L22,40l-7.07,7.07a4.37,4.37,0,0,0,6.15,6.22L19.19,57.5h5.62l-1.89-4.21a4.37,4.37,0,0,0,6.15-6.22Zm81.87,115.15a8.16,8.16,0,0,1,.57-3.12,7.14,7.14,0,0,1,12.74.21,7.77,7.77,0,0,1,.54,2.94v9c0,3.3-2.76,5.46-6.75,5.46s-6.59-2.16-6.59-5.37v-.69a.46.46,0,0,1,.51-.51h3.21c.33,0,.51.15.51.33v.3a2.25,2.25,0,0,0,2.36,2.31,2.36,2.36,0,0,0,2.52-2.4V168c0-.15-.08-.21-.21-.09a4.94,4.94,0,0,1-3.23,1,5.89,5.89,0,0,1-5.46-3.21A7.32,7.32,0,0,1,110.94,162.22Zm4.23-.06a3.85,3.85,0,0,0,.48,2,2.39,2.39,0,0,0,2.18,1.2,2.3,2.3,0,0,0,2.25-1.23,4.1,4.1,0,0,0,.46-2,3.92,3.92,0,0,0-.39-1.83,2.6,2.6,0,0,0-4.53,0A3.65,3.65,0,0,0,115.17,162.16Zm-4.24-19.23L118,150l7.07-7.07a4.37,4.37,0,0,0-6.15-6.22l1.89-4.21h-5.62l1.89,4.21a4.37,4.37,0,0,0-6.15,6.22ZM63,54.31,51.64,43,40.32,54.31a7,7,0,0,0,9.85,10l-3,6.74h9l-3-6.74a7,7,0,0,0,9.85-10Zm36.73,0L88.36,43,77.05,54.31a7,7,0,0,0,9.85,10l-3,6.74h9l-3-6.74a7,7,0,0,0,9.85-10Zm0,38L88.36,81,77.05,92.31a7,7,0,0,0,9.85,10l-3,6.74h9l-3-6.74a7,7,0,0,0,9.85-10ZM63,92.31,51.64,81,40.32,92.31a7,7,0,0,0,9.85,10l-3,6.74h9l-3-6.74a7,7,0,0,0,9.85-10Zm36.73,38L88.36,119,77.05,130.31a7,7,0,0,0,9.85,9.95l-3,6.74h9l-3-6.74a7,7,0,0,0,9.85-9.95Zm-36.73,0L51.64,119,40.32,130.31a7,7,0,0,0,9.85,9.95l-3,6.74h9l-3-6.74A7,7,0,0,0,63,130.31Z"/></g></svg>