<svg xmlns="http://www.w3.org/2000/svg" viewBox="0 0 140 190"><defs><style>.cls-1{fill:#fff;}</style></defs><g id="bkg"><path class="cls-1" d="M140,7V183q0,7-7,7H7q-7,0-7-7V7Q0,0,7,0H133q7,0,7,7"/></g><g id="face"><path d="M13,13.5h3.4a.45.45,0,0,1,.5.51V34a.45.45,0,0,1-.5.51H13.17a.45.45,0,0,1-.51-.51V17.64a.17.17,0,0,0-.21-.18L9.8,18a.43.43,0,0,1-.56-.45V15.27a.55.55,0,0,1,.38-.57l2.74-1.08A1.43,1.43,0,0,1,13,13.5ZM19.92,28V20c0-4.17,2.72-6.78,7.13-6.78s7.17,2.61,7.17,6.78V28c0,4.23-2.76,6.87-7.17,6.87S19.92,32.19,19.92,28ZM30,28.17V19.92a2.78,2.78,0,0,0-2.94-3,2.78,2.78,0,0,0-2.91,3v8.25a2.78,2.78,0,0,0,2.91,3A2.78,2.78,0,0,0,30,28.17ZM127,176.5h-3.4a.45.45,0,0,1-.5-.51V156a.45.45,0,0,1,.5-.51h3.21a.45.45,0,0,1,.51.51v16.35a.17.17,0,0,0,.21.18l2.65-.54a.43.43,0,0,1,.56.45v2.28a.55.55,0,0,1-.38.57l-2.74,1.08A1.43,1.43,0,0,1,127,176.5ZM120.08,162V170c0,4.17-2.72,6.78-7.13,6.78s-7.17-2.61-7.17-6.78V162c0-4.23,2.76-6.87,7.17-6.87S120.08,157.81,120.08,162ZM110,161.83v8.25a2.93,2.93,0,1,0,5.85,0v-8.25a2.93,2.93,0,1,0-5.85,0ZM26.25,46.42a4.11,4.11,0,0,0-1.06.15,4,4,0,0,0,.87-2.51,4.06,4.06,0,1,0-8.12,0,4,4,0,0,0,.87,2.51,4.11,4.11,0,0,0-1.06-.15,4.07,4.07,0,1,0,3.4,6.29l-2,4.79h5.62l-2-4.79a4.06,4.06,0,1,0,3.4-6.29Zm87.5,97.16a4.11,4.11,0,0,0,1.06-.15,4,4,0,0,0-.87,2.51,4.06,4.06,0,0,0,8.12,0,4,4,0,0,0-.87-2.51,4.11,4.11,0,0,0,1.06.15,4.07,4.07,0,1,0-3.4-6.29l2-4.79h-5.62l2,4.79a4.06,4.06,0,1,0-3.4,6.29ZM58.5,110.28a6.27,6.27,0,0,0-1.69.23,6.5,6.5,0,1,0-10.22,0,6.27,6.27,0,0,0-1.69-.23,6.5,6.5,0,1,0,5.43,10.06L47.2,128h9l-3.13-7.66a6.5,6.5,0,1,0,5.43-10.06Zm36.6,0a6.27,6.27,0,0,0-1.69.23,6.5,6.5,0,1,0-10.22,0,6.27,6.27,0,0,0-1.69-.23,6.5,6.5,0,1,0,5.43,10.06L83.8,128h9l-3.13-7.66a6.5,6.5,0,1,0,5.43-10.06Zm-36.6,48a6.27,6.27,0,0,0-1.69.23,6.5,6.5,0,1,0-10.22,0,6.27,6.27,0,0,0-1.69-.23,6.5,6.5,0,1,0,5.43,10.06L47.2,176h9l-3.13-7.66a6.5,6.5,0,1,0,5.43-10.06Zm36.6,0a6.27,6.27,0,0,0-1.69.23,6.5,6.5,0,1,0-10.22,0,6.27,6.27,0,0,0-1.69-.23,6.5,6.5,0,1,0,5.43,10.06L83.8,176h9l-3.13-7.66a6.5,6.5,0,1,0,5.43-10.06Zm-18.3-24a6.27,6.27,0,0,0-1.69.23,6.5,6.5,0,1,0-10.22,0,6.27,6.27,0,0,0-1.69-.23,6.5,6.5,0,1,0,5.43,10.06L65.5,152h9l-3.13-7.66a6.5,6.5,0,1,0,5.43-10.06Zm-18.3-110a6.27,6.27,0,0,0-1.69.23,6.5,6.5,0,1,0-10.22,0,6.27,6.27,0,0,0-1.69-.23,6.5,6.5,0,1,0,5.43,10.06L47.2,42h9l-3.13-7.66A6.5,6.5,0,1,0,58.5,24.28Zm36.6,0a6.27,6.27,0,0,0-1.69.23,6.5,6.5,0,1,0-10.22,0,6.27,6.27,0,0,0-1.69-.23,6.5,6.5,0,1,0,5.43,10.06L83.8,42h9l-3.13-7.66A6.5,6.5,0,1,0,95.1,24.28Zm-36.6,48a6.27,6.27,0,0,0-1.69.23,6.5,6.5,0,1,0-10.22,0,6.27,6.27,0,0,0-1.69-.23,6.5,6.5,0,1,0,5.43,10.06L47.2,90h9l-3.13-7.66A6.5,6.5,0,1,0,58.5,72.28Zm36.6,0a6.27,6.27,0,0,0-1.69.23,6.5,6.5,0,1,0-10.22,0,6.27,6.27,0,0,0-1.69-.23,6.5,6.5,0,1,0,5.43,10.06L83.8,90h9l-3.13-7.66A6.5,6.5,0,1,0,95.1,72.28Zm-18.3-24a6.27,6.27,0,0,0-1.69.23,6.5,6.5,0,1,0-10.22,0,6.27,6.27,0,0,0-1.69-.23,6.5,6.5,0,1,0,5.43,10.06L65.5,66h9l-3.13-7.66A6.5,6.5,0,1,0,76.8,48.28Z"/></g></svg>