<svg xmlns="http://www.w3.org/2000/svg" viewBox="0 0 140 190"><defs><style>.cls-1{fill:#fff;}.cls-2{fill:#1c1c1c;}</style></defs><g id="bkg"><path class="cls-1" d="M140,7V183q0,7-7,7H7q-7,0-7-7V7Q0,0,7,0H133q7,0,7,7"/></g><g id="face"><path class="cls-2" d="M30.31,50.49a4.06,4.06,0,0,1-7.46,2.22l2,4.79H19.19l2-4.79a4.06,4.06,0,1,1-3.4-6.29,4.11,4.11,0,0,1,1.06.15,4,4,0,0,1-.87-2.51,4.06,4.06,0,1,1,8.12,0,4,4,0,0,1-.87,2.51,4.11,4.11,0,0,1,1.06-.15A4.07,4.07,0,0,1,30.31,50.49Zm83.44,93.09a4.11,4.11,0,0,0,1.06-.15,4,4,0,0,0-.87,2.51,4.06,4.06,0,0,0,8.12,0,4,4,0,0,0-.87-2.51,4.11,4.11,0,0,0,1.06.15,4.07,4.07,0,1,0-3.4-6.29l2-4.79h-5.62l2,4.79a4.06,4.06,0,1,0-3.4,6.29ZM15,34.5h3.21a.46.46,0,0,0,.51-.51V28.2c0-.09,0-.12.09-.21l1.83-2.34c.09-.12.21-.12.27,0l5.25,8.52a.63.63,0,0,0,.6.33h3.63c.39,0,.54-.27.33-.6L23.74,22.71a.18.18,0,0,1,0-.24l6.54-8.34c.27-.36.12-.63-.3-.63H26.35a.72.72,0,0,0-.63.3l-6.84,8.49c-.09.12-.21.06-.21-.09V14a.46.46,0,0,0-.51-.51H15a.46.46,0,0,0-.51.51V34A.46.46,0,0,0,15,34.5Zm110.1,121h-3.21a.46.46,0,0,0-.51.51v5.79c0,.09,0,.12-.09.21l-1.83,2.34c-.09.12-.21.12-.27,0l-5.25-8.52a.63.63,0,0,0-.6-.33h-3.63c-.39,0-.54.27-.33.6l6.93,11.19a.18.18,0,0,1,0,.24l-6.54,8.34c-.27.36-.12.63.3.63h3.63a.72.72,0,0,0,.63-.3l6.84-8.49c.09-.12.21-.06.21.09V176a.46.46,0,0,0,.51.51h3.21a.46.46,0,0,0,.51-.51V156A.46.46,0,0,0,125.05,155.5ZM40,125h60V115H40Zm68.09-53.07-7.92,37.28a1,1,0,0,1-1,.79H40.81a1,1,0,0,1-1-.79L31.91,71.93a1,1,0,0,1,1.39-1.12l8.8,4a1,1,0,0,1,.57.7l3.69,17.39,4.32-1.44L44.41,61.93a1,1,0,0,1,1.39-1.12l8.8,4a1,1,0,0,1,.57.7L60,88.33l4.22-1.41L57,47.5a1,1,0,0,1,1.58-1L69.4,54.56a1,1,0,0,0,1.2,0l10.86-8.05a1,1,0,0,1,1.58,1L75.76,86.92,80,88.33l4.85-22.84a1,1,0,0,1,.57-.7l8.8-4a1,1,0,0,1,1.39,1.12L89.32,91.44l4.32,1.44,3.69-17.39a1,1,0,0,1,.57-.7l8.8-4A1,1,0,0,1,108.09,71.93Z"/></g></svg>