<svg xmlns="http://www.w3.org/2000/svg" viewBox="0 0 140 190"><defs><style>.cls-1{fill:#fff;}.cls-2{fill:#c93f3f;}</style></defs><g id="bkg"><path class="cls-1" d="M140,7V183q0,7-7,7H7q-7,0-7-7V7Q0,0,7,0H133q7,0,7,7"/></g><g id="face"><path class="cls-2" d="M13.72,27.9v-1a.46.46,0,0,1,.51-.51h3.21a.46.46,0,0,1,.51.51v1a3.12,3.12,0,0,0,3.39,3.21,3.16,3.16,0,0,0,3.48-3.21V14a.46.46,0,0,1,.51-.51h3.18A.46.46,0,0,1,29,14V27.9c0,4.11-3.09,6.84-7.68,6.84S13.72,32,13.72,27.9ZM118.66,155.26c-4.59,0-7.68,2.73-7.68,6.84V176a.46.46,0,0,0,.51.51h3.18a.46.46,0,0,0,.51-.51V162.1a3.16,3.16,0,0,1,3.48-3.21,3.12,3.12,0,0,1,3.39,3.21v1.05a.46.46,0,0,0,.51.51h3.21a.46.46,0,0,0,.51-.51V162.1C126.28,158,123.22,155.26,118.66,155.26ZM103.12,89.74l-6-1.76a27.49,27.49,0,0,0-54.24,0l-6,1.76a1,1,0,0,0-.7,1.16l3.66,18.3a1,1,0,0,0,1,.8H99.18a1,1,0,0,0,1-.8l3.66-18.3A1,1,0,0,0,103.12,89.74ZM40,125h60V115H40ZM13.88,48.75,22,57.5l8.12-8.75L22,40Zm112.24,92.5L118,132.5l-8.12,8.75L118,150Z"/></g></svg>