<svg xmlns="http://www.w3.org/2000/svg" viewBox="0 0 140 190"><defs><style>.cls-1{fill:#fff;}</style></defs><g id="bkg"><path class="cls-1" d="M140,7V183q0,7-7,7H7q-7,0-7-7V7Q0,0,7,0H133q7,0,7,7"/></g><g id="face"><path d="M18.07,33.9l6.39-16.56c0-.12,0-.21-.12-.21H18.79a.17.17,0,0,0-.18.18v1.2a.46.46,0,0,1-.51.51H15.67a.46.46,0,0,1-.51-.51l0-4.5a.46.46,0,0,1,.51-.51H28.51A.46.46,0,0,1,29,14V16.8a1.67,1.67,0,0,1-.12.63L22.48,34.11a.55.55,0,0,1-.57.39H18.46C18.1,34.5,18,34.23,18.07,33.9Zm11,13.17L22,40l-7.07,7.07a4.37,4.37,0,0,0,6.15,6.22L19.19,57.5h5.62l-1.89-4.21a4.37,4.37,0,0,0,6.15-6.22Zm92.86,109-6.39,16.56c0,.12,0,.21.12.21h5.55a.17.17,0,0,0,.18-.18v-1.2a.46.46,0,0,1,.51-.51h2.43a.46.46,0,0,1,.51.51l0,4.5a.46.46,0,0,1-.51.51H111.49A.46.46,0,0,1,111,176V173.2a1.67,1.67,0,0,1,.12-.63l6.42-16.68a.55.55,0,0,1,.57-.39h3.45C121.9,155.5,122.05,155.77,121.93,156.1Zm-11-13.17L118,150l7.07-7.07a4.37,4.37,0,0,0-6.15-6.22l1.89-4.21h-5.62l1.89,4.21a4.37,4.37,0,0,0-6.15,6.22ZM63,49.31,51.64,38,40.32,49.31a7,7,0,0,0,9.85,9.95l-3,6.74h9l-3-6.74A7,7,0,0,0,63,49.31Zm36.73,0L88.36,38,77.05,49.31a7,7,0,0,0,9.85,9.95l-3,6.74h9l-3-6.74a7,7,0,0,0,9.85-9.95Zm0,48L88.36,86,77.05,97.31a7,7,0,0,0,9.85,10l-3,6.74h9l-3-6.74a7,7,0,0,0,9.85-10ZM63,97.31,51.64,86,40.32,97.31a7,7,0,0,0,9.85,10l-3,6.74h9l-3-6.74a7,7,0,0,0,9.85-10Zm36.73,38L88.36,124,77.05,135.31a7,7,0,0,0,9.85,9.95l-3,6.74h9l-3-6.74a7,7,0,0,0,9.85-9.95Zm-36.73,0L51.64,124,40.32,135.31a7,7,0,0,0,9.85,9.95l-3,6.74h9l-3-6.74A7,7,0,0,0,63,135.31Zm18.36-62L70,62,58.69,73.31a7,7,0,0,0,9.84,10L65.5,90h9l-3-6.74a7,7,0,0,0,9.84-10Z"/></g></svg>