<svg xmlns="http://www.w3.org/2000/svg" viewBox="0 0 140 190"><defs><style>.cls-1{fill:#fff;}.cls-2{fill:#c93f3f;}</style></defs><g id="bkg"><path class="cls-1" d="M140,7V183q0,7-7,7H7q-7,0-7-7V7Q0,0,7,0H133q7,0,7,7"/></g><g id="face"><path class="cls-2" d="M29.66,25.86v2.73a.46.46,0,0,1-.51.51H28.07a.16.16,0,0,0-.18.18V34a.46.46,0,0,1-.51.51H24.17a.45.45,0,0,1-.5-.51V29.28a.17.17,0,0,0-.19-.18h-9a.46.46,0,0,1-.51-.51V26.43A1.57,1.57,0,0,1,14,25.8l5.34-11.91a.66.66,0,0,1,.6-.39H23.4a.38.38,0,0,1,.38.6l-4.91,11c-.06.15,0,.21.15.21h4.46a.17.17,0,0,0,.19-.18V21.63a.45.45,0,0,1,.5-.51h3.21a.46.46,0,0,1,.51.51v3.54a.17.17,0,0,0,.18.18h1.08A.46.46,0,0,1,29.66,25.86Zm80.68,138.28v-2.73a.46.46,0,0,1,.51-.51h1.08a.16.16,0,0,0,.18-.18V156a.46.46,0,0,1,.51-.51h3.21a.45.45,0,0,1,.5.51v4.71a.17.17,0,0,0,.19.18h9a.46.46,0,0,1,.51.51v2.16a1.57,1.57,0,0,1-.12.63l-5.34,11.91a.66.66,0,0,1-.6.39H116.6a.38.38,0,0,1-.38-.6l4.91-11c.06-.15,0-.21-.15-.21h-4.46a.17.17,0,0,0-.19.18v3.54a.45.45,0,0,1-.5.51h-3.21a.46.46,0,0,1-.51-.51v-3.54a.17.17,0,0,0-.18-.18h-1.08A.46.46,0,0,1,110.34,164.14ZM22.88,41.28A4.37,4.37,0,0,0,22,42.56a4.37,4.37,0,1,0-7.07,4.91L22,54.54l7.07-7.07a4.38,4.38,0,1,0-6.19-6.19Zm94.24,107.44a4.37,4.37,0,0,0,.88-1.28,4.37,4.37,0,1,0,7.07-4.91L118,135.46l-7.07,7.07a4.38,4.38,0,0,0,6.19,6.19ZM53.05,102.05a6.84,6.84,0,0,0-1.41,2A7,7,0,1,0,40.32,112l11.32,11.31L63,112a7,7,0,0,0-9.9-9.9Zm0-33.26a6.71,6.71,0,0,0-1.41,2,7,7,0,0,0-11.32-2,7,7,0,0,0,0,9.9L51.64,90,63,78.69a7,7,0,0,0-9.9-9.9Zm36.73,33.26a7.06,7.06,0,0,0-1.42,2,6.84,6.84,0,0,0-1.41-2,7,7,0,0,0-9.9,9.9l11.31,11.31L99.68,112a7,7,0,0,0-9.9-9.9Zm0-33.26a6.93,6.93,0,0,0-1.42,2,6.71,6.71,0,0,0-1.41-2,7,7,0,0,0-9.9,9.9L88.36,90,99.68,78.69a7,7,0,0,0-9.9-9.9Z"/></g></svg>