<svg xmlns="http://www.w3.org/2000/svg" viewBox="0 0 140 190"><defs><style>.cls-1{fill:#fff;}.cls-2{fill:#4485bf;}.cls-3{fill:#3a72ad;}.cls-4{fill:#2b62a1;}</style></defs><g id="bkg"><path class="cls-1" d="M140,7V183q0,7-7,7H7q-7,0-7-7V7Q0,0,7,0H133q7,0,7,7"/></g><g id="face"><polyline class="cls-2" points="133 183 7 183 7 7 133 7 133 183"/><path class="cls-3" d="M113,27V163H27V27h86m5-5H22V168h96V22ZM47.78,34.76a4.38,4.38,0,0,1,0,6.19L40.71,48,33.64,41A4.38,4.38,0,1,1,40.71,36a4.36,4.36,0,0,1,7.07-1.28Zm36.55,3.66a4.11,4.11,0,0,0-1.06.15,4,4,0,0,0,.87-2.51,4.06,4.06,0,0,0-8.12,0,4,4,0,0,0,.87,2.51,4.11,4.11,0,0,0-1.06-.15,4.07,4.07,0,1,0,3.4,6.29l-2,4.79h5.62l-2-4.79a4.06,4.06,0,1,0,3.4-6.29ZM60.84,56.36A4.37,4.37,0,0,0,60,57.64a4.37,4.37,0,1,0-7.07,4.91L60,69.62,67,62.55a4.38,4.38,0,0,0-6.19-6.19ZM103.58,60a4.11,4.11,0,0,0-1.06.15,4,4,0,0,0,.87-2.51,4.06,4.06,0,0,0-8.12,0,4,4,0,0,0,.87,2.51A4.11,4.11,0,0,0,95.08,60a4.07,4.07,0,1,0,3.4,6.29l-2,4.79h5.62l-2-4.79a4.06,4.06,0,1,0,3.4-6.29ZM60.84,142.76A4.37,4.37,0,0,0,60,144,4.37,4.37,0,1,0,52.89,149L60,156,67,149a4.38,4.38,0,0,0-6.19-6.19Zm42.74,3.66a4.11,4.11,0,0,0-1.06.15,4,4,0,0,0,.87-2.51,4.06,4.06,0,0,0-8.12,0,4,4,0,0,0,.87,2.51,4.11,4.11,0,0,0-1.06-.15,4.07,4.07,0,1,0,3.4,6.29l-2,4.79h5.62l-2-4.79a4.06,4.06,0,1,0,3.4-6.29ZM80.47,78a4.37,4.37,0,0,0-.88,1.28A4.61,4.61,0,0,0,78.7,78a4.38,4.38,0,0,0-6.19,6.19l7.08,7.07,7.07-7.07A4.38,4.38,0,0,0,80.47,78ZM44.92,81.62a4.11,4.11,0,0,0-1.06.15,4,4,0,0,0,.87-2.51,4.06,4.06,0,1,0-8.12,0,4,4,0,0,0,.87,2.51,4.11,4.11,0,0,0-1.06-.15,4.07,4.07,0,1,0,3.4,6.29l-2,4.79h5.62l-2-4.79a4.06,4.06,0,1,0,3.4-6.29Zm55.25,17.94a4.37,4.37,0,0,0-.88,1.28,4.37,4.37,0,1,0-7.07,4.91l7.07,7.07,7.07-7.07a4.38,4.38,0,0,0-6.19-6.19Zm-35.54,3.66a4.11,4.11,0,0,0-1.06.15,4.07,4.07,0,1,0-6.39,0,4.11,4.11,0,0,0-1.06-.15,4.07,4.07,0,1,0,3.4,6.29l-2,4.79h5.63l-2-4.79a4.06,4.06,0,1,0,3.4-6.29Zm-23,17.94a4.37,4.37,0,0,0-.88,1.28,4.37,4.37,0,1,0-7.07,4.91l7.07,7.07,7.07-7.07a4.38,4.38,0,0,0-6.19-6.19Zm42.74,3.66a4.11,4.11,0,0,0-1.06.15,4,4,0,0,0,.87-2.51,4.06,4.06,0,0,0-8.12,0,4,4,0,0,0,.87,2.51,4.11,4.11,0,0,0-1.06-.15,4.07,4.07,0,1,0,3.4,6.29l-2,4.79h5.62l-2-4.79a4.06,4.06,0,1,0,3.4-6.29Z"/><path class="cls-4" d="M67.49,45.26a4.39,4.39,0,0,1-6.16,0l1.9,4.21H57.6l1.9-4.21a4.38,4.38,0,0,1-6.16-6.22L60.41,32l7.08,7.07A4.39,4.39,0,0,1,67.49,45.26Zm40.15-4.51L99.52,32l-8.13,8.75,8.13,8.75ZM86.74,60.67,79.66,53.6l-7.07,7.07a4.38,4.38,0,0,0,6.16,6.22l-1.9,4.21h5.63l-1.9-4.21a4.38,4.38,0,0,0,6.16-6.22ZM48.61,62.35,40.48,53.6l-8.12,8.75,8.12,8.75Zm38.13,84.72L79.66,140l-7.07,7.07a4.38,4.38,0,0,0,6.16,6.22l-1.9,4.21h5.63l-1.9-4.21a4.38,4.38,0,0,0,6.16-6.22Zm-38.13,1.68L40.48,140l-8.12,8.75,8.12,8.75Zm57.75-66.48L99.29,75.2l-7.07,7.07a4.37,4.37,0,0,0,6.15,6.22L96.48,92.7h5.62l-1.89-4.21a4.37,4.37,0,0,0,6.15-6.22ZM68.23,84,60.11,75.2,52,84l8.13,8.75ZM47.78,103.87,40.71,96.8l-7.07,7.07a4.37,4.37,0,0,0,6.15,6.22L37.9,114.3h5.62l-1.89-4.21a4.37,4.37,0,0,0,6.15-6.22Zm40.16,1.68L79.81,96.8l-8.12,8.75,8.12,8.75ZM67.49,125.47l-7.08-7.07-7.07,7.07a4.38,4.38,0,0,0,6.16,6.22l-1.9,4.21h5.63l-1.9-4.21a4.38,4.38,0,0,0,6.16-6.22Zm40.15,1.68-8.12-8.75-8.13,8.75,8.13,8.75Z"/></g></svg>