<svg xmlns="http://www.w3.org/2000/svg" viewBox="0 0 140 190"><defs><style>.cls-1{fill:#fff;}.cls-2{fill:#c93f3f;}</style></defs><g id="bkg"><path class="cls-1" d="M140,7V183q0,7-7,7H7q-7,0-7-7V7Q0,0,7,0H133q7,0,7,7"/></g><g id="face"><path class="cls-2" d="M13,13.5h3.4a.45.45,0,0,1,.5.51V34a.45.45,0,0,1-.5.51H13.17a.45.45,0,0,1-.51-.51V17.64a.17.17,0,0,0-.21-.18L9.8,18a.43.43,0,0,1-.56-.45V15.27a.55.55,0,0,1,.38-.57l2.74-1.08A1.43,1.43,0,0,1,13,13.5ZM19.92,28V20c0-4.17,2.72-6.78,7.13-6.78s7.17,2.61,7.17,6.78V28c0,4.23-2.76,6.87-7.17,6.87S19.92,32.19,19.92,28ZM30,28.17V19.92a2.78,2.78,0,0,0-2.94-3,2.78,2.78,0,0,0-2.91,3v8.25a2.78,2.78,0,0,0,2.91,3A2.78,2.78,0,0,0,30,28.17ZM127,176.5h-3.4a.45.45,0,0,1-.5-.51V156a.45.45,0,0,1,.5-.51h3.21a.45.45,0,0,1,.51.51v16.35a.17.17,0,0,0,.21.18l2.65-.54a.43.43,0,0,1,.56.45v2.28a.55.55,0,0,1-.38.57l-2.74,1.08A1.43,1.43,0,0,1,127,176.5ZM120.08,162V170c0,4.17-2.72,6.78-7.13,6.78s-7.17-2.61-7.17-6.78V162c0-4.23,2.76-6.87,7.17-6.87S120.08,157.81,120.08,162ZM110,161.83v8.25a2.93,2.93,0,1,0,5.85,0v-8.25a2.93,2.93,0,1,0-5.85,0ZM22.88,41.28A4.37,4.37,0,0,0,22,42.56a4.37,4.37,0,1,0-7.07,4.91L22,54.54l7.07-7.07a4.38,4.38,0,1,0-6.19-6.19Zm94.24,107.44a4.37,4.37,0,0,0,.88-1.28,4.37,4.37,0,1,0,7.07-4.91L118,135.46l-7.07,7.07a4.38,4.38,0,0,0,6.19,6.19ZM53.05,68.79a6.71,6.71,0,0,0-1.41,2,7,7,0,0,0-11.32-2,7,7,0,0,0,0,9.9L51.64,90,63,78.69a7,7,0,0,0-9.9-9.9Zm36.73,0a6.93,6.93,0,0,0-1.42,2,6.71,6.71,0,0,0-1.41-2,7,7,0,0,0-9.9,9.9L88.36,90,99.68,78.69a7,7,0,0,0-9.9-9.9ZM53.05,25.52a6.84,6.84,0,0,0-1.41,2.05,7,7,0,1,0-11.32,7.85L51.64,46.74,63,35.42a7,7,0,1,0-9.9-9.9Zm36.73,0a7.06,7.06,0,0,0-1.42,2.05A6.84,6.84,0,0,0,87,25.52a7,7,0,0,0-9.9,9.9L88.36,46.74,99.68,35.42a7,7,0,1,0-9.9-9.9ZM71.41,47.16a7,7,0,0,0-1.41,2,7,7,0,1,0-11.31,7.85L70,68.37,81.31,57.05a7,7,0,0,0-9.9-9.89ZM53.05,145.31a6.84,6.84,0,0,0-1.41,2.05,7,7,0,1,0-11.32,7.85l11.32,11.32L63,155.21a7,7,0,1,0-9.9-9.9Zm36.73,0a7.06,7.06,0,0,0-1.42,2.05A6.84,6.84,0,0,0,87,145.31a7,7,0,1,0-9.9,9.9l11.31,11.32,11.32-11.32a7,7,0,1,0-9.9-9.9ZM53.05,102.05a6.84,6.84,0,0,0-1.41,2A7,7,0,1,0,40.32,112l11.32,11.31L63,112a7,7,0,0,0-9.9-9.9Zm36.73,0a7.06,7.06,0,0,0-1.42,2,6.84,6.84,0,0,0-1.41-2,7,7,0,0,0-9.9,9.9l11.31,11.31L99.68,112a7,7,0,0,0-9.9-9.9ZM71.41,123.68a7,7,0,0,0-1.41,2,7,7,0,1,0-11.31,7.85L70,144.9l11.31-11.32a7,7,0,1,0-9.9-9.9Z"/></g></svg>