<svg xmlns="http://www.w3.org/2000/svg" viewBox="0 0 140 190"><defs><style>.cls-1{fill:#fff;}</style></defs><g id="bkg"><path class="cls-1" d="M140,7V183q0,7-7,7H7q-7,0-7-7V7Q0,0,7,0H133q7,0,7,7"/></g><g id="face"><path d="M18.07,33.9l6.39-16.56c0-.12,0-.21-.12-.21H18.79a.17.17,0,0,0-.18.18v1.2a.46.46,0,0,1-.51.51H15.67a.46.46,0,0,1-.51-.51l0-4.5a.46.46,0,0,1,.51-.51H28.51A.46.46,0,0,1,29,14V16.8a1.67,1.67,0,0,1-.12.63L22.48,34.11a.55.55,0,0,1-.57.39H18.46C18.1,34.5,18,34.23,18.07,33.9ZM121.93,156.1l-6.39,16.56c0,.12,0,.21.12.21h5.55a.17.17,0,0,0,.18-.18v-1.2a.46.46,0,0,1,.51-.51h2.43a.46.46,0,0,1,.51.51l0,4.5a.46.46,0,0,1-.51.51H111.49A.46.46,0,0,1,111,176V173.2a1.67,1.67,0,0,1,.12-.63l6.42-16.68a.55.55,0,0,1,.57-.39h3.45C121.9,155.5,122.05,155.77,121.93,156.1ZM26.25,46.42a4.11,4.11,0,0,0-1.06.15,4,4,0,0,0,.87-2.51,4.06,4.06,0,1,0-8.12,0,4,4,0,0,0,.87,2.51,4.11,4.11,0,0,0-1.06-.15,4.07,4.07,0,1,0,3.4,6.29l-2,4.79h5.62l-2-4.79a4.06,4.06,0,1,0,3.4-6.29Zm87.5,97.16a4.11,4.11,0,0,0,1.06-.15,4,4,0,0,0-.87,2.51,4.06,4.06,0,0,0,8.12,0,4,4,0,0,0-.87-2.51,4.11,4.11,0,0,0,1.06.15,4.07,4.07,0,1,0-3.4-6.29l2-4.79h-5.62l2,4.79a4.06,4.06,0,1,0-3.4,6.29ZM58.5,48.28a6.27,6.27,0,0,0-1.69.23,6.5,6.5,0,1,0-10.22,0,6.27,6.27,0,0,0-1.69-.23,6.5,6.5,0,1,0,5.43,10.06L47.2,66h9l-3.13-7.66A6.5,6.5,0,1,0,58.5,48.28Zm36.6,0a6.27,6.27,0,0,0-1.69.23,6.5,6.5,0,1,0-10.22,0,6.27,6.27,0,0,0-1.69-.23,6.5,6.5,0,1,0,5.43,10.06L83.8,66h9l-3.13-7.66A6.5,6.5,0,1,0,95.1,48.28Zm-36.6,48a6.27,6.27,0,0,0-1.69.23,6.5,6.5,0,1,0-10.22,0,6.27,6.27,0,0,0-1.69-.23,6.5,6.5,0,1,0,5.43,10.06L47.2,114h9l-3.13-7.66A6.5,6.5,0,1,0,58.5,96.28Zm36.6,0a6.27,6.27,0,0,0-1.69.23,6.5,6.5,0,1,0-10.22,0,6.27,6.27,0,0,0-1.69-.23,6.5,6.5,0,1,0,5.43,10.06L83.8,114h9l-3.13-7.66A6.5,6.5,0,1,0,95.1,96.28Zm-36.6,38a6.27,6.27,0,0,0-1.69.23,6.5,6.5,0,1,0-10.22,0,6.27,6.27,0,0,0-1.69-.23,6.5,6.5,0,1,0,5.43,10.06L47.2,152h9l-3.13-7.66a6.5,6.5,0,1,0,5.43-10.06Zm36.6,0a6.27,6.27,0,0,0-1.69.23,6.5,6.5,0,1,0-10.22,0,6.27,6.27,0,0,0-1.69-.23,6.5,6.5,0,1,0,5.43,10.06L83.8,152h9l-3.13-7.66a6.5,6.5,0,1,0,5.43-10.06Zm-18.3-62a6.27,6.27,0,0,0-1.69.23,6.5,6.5,0,1,0-10.22,0,6.27,6.27,0,0,0-1.69-.23,6.5,6.5,0,1,0,5.43,10.06L65.5,90h9l-3.13-7.66A6.5,6.5,0,1,0,76.8,72.28Z"/></g></svg>