<svg xmlns="http://www.w3.org/2000/svg" viewBox="0 0 140 190"><defs><style>.cls-1{fill:#fff;}</style></defs><g id="bkg"><path class="cls-1" d="M140,7V183q0,7-7,7H7q-7,0-7-7V7Q0,0,7,0H133q7,0,7,7"/></g><g id="face"><path d="M28.71,20.25v9c0,3.3-2.76,5.46-6.75,5.46s-6.6-2.16-6.6-5.37v-.69a.46.46,0,0,1,.51-.51h3.21c.32,0,.5.12.5.3v.33A2.26,2.26,0,0,0,22,31.11a2.36,2.36,0,0,0,2.51-2.4V26c0-.15-.09-.21-.21-.09a4.94,4.94,0,0,1-3.23,1,5.89,5.89,0,0,1-5.47-3.21,7.32,7.32,0,0,1-.71-3.45,8,8,0,0,1,.57-3.12,6.52,6.52,0,0,1,6.32-3.81,6.48,6.48,0,0,1,6.42,4A7.77,7.77,0,0,1,28.71,20.25Zm-4.26-.15a3.92,3.92,0,0,0-.4-1.83A2.35,2.35,0,0,0,21.78,17a2.36,2.36,0,0,0-2.25,1.32,3.65,3.65,0,0,0-.45,1.89,3.94,3.94,0,0,0,.47,2,2.42,2.42,0,0,0,2.19,1.2A2.32,2.32,0,0,0,24,22.11,4.21,4.21,0,0,0,24.45,20.1Zm4.62,27L22,40l-7.07,7.07a4.37,4.37,0,0,0,6.15,6.22L19.19,57.5h5.62l-1.89-4.21a4.37,4.37,0,0,0,6.15-6.22Zm82.22,122.68v-9c0-3.3,2.76-5.46,6.75-5.46s6.6,2.16,6.6,5.37v.69a.46.46,0,0,1-.51.51h-3.21c-.32,0-.5-.12-.5-.3v-.33a2.26,2.26,0,0,0-2.38-2.31,2.36,2.36,0,0,0-2.51,2.4v2.76c0,.15.09.21.21.09a4.94,4.94,0,0,1,3.23-1,5.89,5.89,0,0,1,5.47,3.21,7.32,7.32,0,0,1,.71,3.45,8,8,0,0,1-.57,3.12,7.14,7.14,0,0,1-12.74-.21A7.77,7.77,0,0,1,111.29,169.75Zm4.26.15a3.92,3.92,0,0,0,.4,1.83,2.59,2.59,0,0,0,4.52,0,3.65,3.65,0,0,0,.45-1.89,3.94,3.94,0,0,0-.47-2,2.42,2.42,0,0,0-2.19-1.2,2.32,2.32,0,0,0-2.25,1.23A4.21,4.21,0,0,0,115.55,169.9Zm-4.62-27L118,150l7.07-7.07a4.37,4.37,0,0,0-6.15-6.22l1.89-4.21h-5.62l1.89,4.21a4.37,4.37,0,0,0-6.15,6.22ZM99.68,30.31,88.36,19,77.05,30.31a7,7,0,0,0,9.85,10l-3,6.74h9l-3-6.74a7,7,0,0,0,9.85-9.95ZM63,30.31,51.64,19,40.32,30.31a7,7,0,0,0,9.85,10l-3,6.74h9l-3-6.74A7,7,0,0,0,63,30.31Zm36.73,124L88.36,143,77.05,154.31a7,7,0,0,0,9.85,9.95l-3,6.74h9l-3-6.74a7,7,0,0,0,9.85-9.95Zm-36.73,0L51.64,143,40.32,154.31a7,7,0,0,0,9.85,9.95l-3,6.74h9l-3-6.74A7,7,0,0,0,63,154.31Zm0-86L51.64,57,40.32,68.31a7,7,0,0,0,9.85,10l-3,6.74h9l-3-6.74a7,7,0,0,0,9.85-10Zm36.73,0L88.36,57,77.05,68.31a7,7,0,0,0,9.85,10l-3,6.74h9l-3-6.74a7,7,0,0,0,9.85-10Zm0,48L88.36,105,77.05,116.31a7,7,0,0,0,9.85,10l-3,6.74h9l-3-6.74a7,7,0,0,0,9.85-10Zm-36.73,0L51.64,105,40.32,116.31a7,7,0,0,0,9.85,10l-3,6.74h9l-3-6.74a7,7,0,0,0,9.85-10Zm18.36-24L70,81,58.69,92.31a7,7,0,0,0,9.84,10l-3,6.74h9l-3-6.74a7,7,0,0,0,9.84-10Z"/></g></svg>