<svg xmlns="http://www.w3.org/2000/svg" viewBox="0 0 140 190"><defs><style>.cls-1{fill:#fff;}</style></defs><g id="bkg"><path class="cls-1" d="M140,7V183q0,7-7,7H7q-7,0-7-7V7Q0,0,7,0H133q7,0,7,7"/></g><g id="face"><path d="M28.81,27.66a8.12,8.12,0,0,1-.54,3,6.53,6.53,0,0,1-6.42,4.08,6.65,6.65,0,0,1-6.48-4.23,8.13,8.13,0,0,1-.48-2.37.46.46,0,0,1,.51-.51h3.24a.51.51,0,0,1,.54.51,4.48,4.48,0,0,0,.3,1.32,2.37,2.37,0,0,0,2.34,1.65,2.34,2.34,0,0,0,2.31-1.47,5.14,5.14,0,0,0,.42-2.1,5.37,5.37,0,0,0-.48-2.31,2.33,2.33,0,0,0-2.28-1.41,2.67,2.67,0,0,0-1.38.57.49.49,0,0,1-.72-.12L18.1,22.14a.49.49,0,0,1,.06-.72l4.68-4.08c.12-.09.06-.21-.09-.21H15.82a.46.46,0,0,1-.51-.51V14a.46.46,0,0,1,.51-.51H28a.46.46,0,0,1,.51.51V17a.86.86,0,0,1-.27.63l-3.93,3.57c-.12.12-.06.21.12.24a5,5,0,0,1,3.75,3.09A8,8,0,0,1,28.81,27.66Zm82.38,134.68a8.12,8.12,0,0,1,.54-3,6.53,6.53,0,0,1,6.42-4.08,6.65,6.65,0,0,1,6.48,4.23,8.13,8.13,0,0,1,.48,2.37.46.46,0,0,1-.51.51h-3.24a.51.51,0,0,1-.54-.51,4.48,4.48,0,0,0-.3-1.32,2.37,2.37,0,0,0-2.34-1.65,2.34,2.34,0,0,0-2.31,1.47,5.14,5.14,0,0,0-.42,2.1,5.37,5.37,0,0,0,.48,2.31,2.33,2.33,0,0,0,2.28,1.41,2.67,2.67,0,0,0,1.38-.57.49.49,0,0,1,.72.12l1.59,2.13a.49.49,0,0,1-.06.72l-4.68,4.08c-.12.09-.06.21.09.21h6.93a.46.46,0,0,1,.51.51V176a.46.46,0,0,1-.51.51H112a.46.46,0,0,1-.51-.51v-2.94a.86.86,0,0,1,.27-.63l3.93-3.57c.12-.12.06-.21-.12-.24a5,5,0,0,1-3.75-3.09A8,8,0,0,1,111.19,162.34ZM26.25,46.42a4.11,4.11,0,0,0-1.06.15,4,4,0,0,0,.87-2.51,4.06,4.06,0,1,0-8.12,0,4,4,0,0,0,.87,2.51,4.11,4.11,0,0,0-1.06-.15,4.07,4.07,0,1,0,3.4,6.29l-2,4.79h5.62l-2-4.79a4.06,4.06,0,1,0,3.4-6.29Zm87.5,97.16a4.11,4.11,0,0,0,1.06-.15,4,4,0,0,0-.87,2.51,4.06,4.06,0,0,0,8.12,0,4,4,0,0,0-.87-2.51,4.11,4.11,0,0,0,1.06.15,4.07,4.07,0,1,0-3.4-6.29l2-4.79h-5.62l2,4.79a4.06,4.06,0,1,0-3.4,6.29ZM76.8,91.28a6.27,6.27,0,0,0-1.69.23,6.5,6.5,0,1,0-10.22,0,6.27,6.27,0,0,0-1.69-.23,6.5,6.5,0,1,0,5.43,10.06L65.5,109h9l-3.13-7.66A6.5,6.5,0,1,0,76.8,91.28Zm0-38a6.27,6.27,0,0,0-1.69.23,6.5,6.5,0,1,0-10.22,0,6.27,6.27,0,0,0-1.69-.23,6.5,6.5,0,1,0,5.43,10.06L65.5,71h9l-3.13-7.66A6.5,6.5,0,1,0,76.8,53.28Zm0,76a6.27,6.27,0,0,0-1.69.23,6.5,6.5,0,1,0-10.22,0,6.27,6.27,0,0,0-1.69-.23,6.5,6.5,0,1,0,5.43,10.06L65.5,147h9l-3.13-7.66a6.5,6.5,0,1,0,5.43-10.06Z"/></g></svg>