<svg xmlns="http://www.w3.org/2000/svg" viewBox="0 0 140 190"><defs><style>.cls-1{fill:#fff;}</style></defs><g id="bkg"><path class="cls-1" d="M140,7V183q0,7-7,7H7q-7,0-7-7V7Q0,0,7,0H133q7,0,7,7"/></g><g id="face"><path d="M13.72,27.9v-1a.46.46,0,0,1,.51-.51h3.21a.46.46,0,0,1,.51.51v1a3.12,3.12,0,0,0,3.39,3.21,3.16,3.16,0,0,0,3.48-3.21V14a.46.46,0,0,1,.51-.51h3.18A.46.46,0,0,1,29,14V27.9c0,4.11-3.09,6.84-7.68,6.84S13.72,32,13.72,27.9ZM126.28,162.1v1.05a.46.46,0,0,1-.51.51h-3.21a.46.46,0,0,1-.51-.51V162.1a3.12,3.12,0,0,0-3.39-3.21,3.16,3.16,0,0,0-3.48,3.21V176a.46.46,0,0,1-.51.51h-3.18A.46.46,0,0,1,111,176V162.1c0-4.11,3.09-6.84,7.68-6.84S126.28,158,126.28,162.1ZM26.25,46.42a4.11,4.11,0,0,0-1.06.15,4,4,0,0,0,.87-2.51,4.06,4.06,0,1,0-8.12,0,4,4,0,0,0,.87,2.51,4.11,4.11,0,0,0-1.06-.15,4.07,4.07,0,1,0,3.4,6.29l-2,4.79h5.62l-2-4.79a4.06,4.06,0,1,0,3.4-6.29Zm87.5,97.16a4.11,4.11,0,0,0,1.06-.15,4,4,0,0,0-.87,2.51,4.06,4.06,0,0,0,8.12,0,4,4,0,0,0-.87-2.51,4.11,4.11,0,0,0,1.06.15,4.07,4.07,0,1,0-3.4-6.29l2-4.79h-5.62l2,4.79a4.06,4.06,0,1,0-3.4,6.29ZM103.82,90.9l-3.66,18.3a1,1,0,0,1-1,.8H40.82a1,1,0,0,1-1-.8L36.18,90.9a1,1,0,0,1,.7-1.16l6-1.76a27.49,27.49,0,0,1,54.24,0l6,1.76A1,1,0,0,1,103.82,90.9ZM40,125h60V115H40Z"/></g></svg>