<svg xmlns="http://www.w3.org/2000/svg" viewBox="0 0 140 190"><defs><style>.cls-1{fill:#fff;}.cls-2{fill:#c93f3f;}</style></defs><g id="bkg"><path class="cls-1" d="M140,7V183q0,7-7,7H7q-7,0-7-7V7Q0,0,7,0H133q7,0,7,7"/></g><g id="face"><path class="cls-2" d="M18.07,33.9l6.39-16.56c0-.12,0-.21-.12-.21H18.79a.17.17,0,0,0-.18.18v1.2a.46.46,0,0,1-.51.51H15.67a.46.46,0,0,1-.51-.51l0-4.5a.46.46,0,0,1,.51-.51H28.51A.46.46,0,0,1,29,14V16.8a1.67,1.67,0,0,1-.12.63L22.48,34.11a.55.55,0,0,1-.57.39H18.46C18.1,34.5,18,34.23,18.07,33.9ZM121.93,156.1l-6.39,16.56c0,.12,0,.21.12.21h5.55a.17.17,0,0,0,.18-.18v-1.2a.46.46,0,0,1,.51-.51h2.43a.46.46,0,0,1,.51.51l0,4.5a.46.46,0,0,1-.51.51H111.49A.46.46,0,0,1,111,176V173.2a1.67,1.67,0,0,1,.12-.63l6.42-16.68a.55.55,0,0,1,.57-.39h3.45C121.9,155.5,122.05,155.77,121.93,156.1ZM22.88,41.28A4.37,4.37,0,0,0,22,42.56a4.37,4.37,0,1,0-7.07,4.91L22,54.54l7.07-7.07a4.38,4.38,0,1,0-6.19-6.19Zm94.24,107.44a4.37,4.37,0,0,0,.88-1.28,4.37,4.37,0,1,0,7.07-4.91L118,135.46l-7.07,7.07a4.38,4.38,0,0,0,6.19,6.19ZM53.05,90.42a6.84,6.84,0,0,0-1.41,2,7,7,0,1,0-11.32,7.85l11.32,11.31L63,100.32a7,7,0,0,0-9.9-9.9Zm36.73,0a7.06,7.06,0,0,0-1.42,2,6.84,6.84,0,0,0-1.41-2,7,7,0,0,0-9.9,9.9l11.31,11.31,11.32-11.31a7,7,0,0,0-9.9-9.9ZM53.05,123.68a6.84,6.84,0,0,0-1.41,2,7,7,0,1,0-11.32,7.85L51.64,144.9,63,133.58a7,7,0,1,0-9.9-9.9Zm36.73,0a7.06,7.06,0,0,0-1.42,2,6.84,6.84,0,0,0-1.41-2,7,7,0,1,0-9.9,9.9L88.36,144.9l11.32-11.32a7,7,0,1,0-9.9-9.9ZM53.05,47.16a6.79,6.79,0,0,0-1.41,2,7,7,0,1,0-11.32,7.85L51.64,68.37,63,57.05a7,7,0,0,0-9.9-9.89Zm36.73,0a7,7,0,0,0-1.42,2,6.79,6.79,0,0,0-1.41-2,7,7,0,0,0-9.9,9.89L88.36,68.37,99.68,57.05a7,7,0,0,0-9.9-9.89ZM71.41,68.79a6.89,6.89,0,0,0-1.41,2,6.89,6.89,0,0,0-1.41-2,7,7,0,0,0-9.9,9.9L70,90,81.31,78.69a7,7,0,0,0-9.9-9.9Z"/></g></svg>