<svg xmlns="http://www.w3.org/2000/svg" viewBox="0 0 140 190"><defs><style>.cls-1{fill:#fff;}.cls-2{fill:#c93f3f;}</style></defs><g id="bkg"><path class="cls-1" d="M140,7V183q0,7-7,7H7q-7,0-7-7V7Q0,0,7,0H133q7,0,7,7"/></g><g id="face"><path class="cls-2" d="M18.07,33.9l6.39-16.56c0-.12,0-.21-.12-.21H18.79a.17.17,0,0,0-.18.18v1.2a.46.46,0,0,1-.51.51H15.67a.46.46,0,0,1-.51-.51l0-4.5a.46.46,0,0,1,.51-.51H28.51A.46.46,0,0,1,29,14V16.8a1.67,1.67,0,0,1-.12.63L22.48,34.11a.55.55,0,0,1-.57.39H18.46C18.1,34.5,18,34.23,18.07,33.9ZM121.93,156.1l-6.39,16.56c0,.12,0,.21.12.21h5.55a.17.17,0,0,0,.18-.18v-1.2a.46.46,0,0,1,.51-.51h2.43a.46.46,0,0,1,.51.51l0,4.5a.46.46,0,0,1-.51.51H111.49A.46.46,0,0,1,111,176V173.2a1.67,1.67,0,0,1,.12-.63l6.42-16.68a.55.55,0,0,1,.57-.39h3.45C121.9,155.5,122.05,155.77,121.93,156.1ZM30.12,48.75,22,40l-8.12,8.75L22,57.5Zm79.76,92.5L118,150l8.12-8.75L118,132.5ZM65,100,52,86,39,100l13,14Zm36,0L88,86,75,100l13,14ZM65,138,52,124,39,138l13,14Zm36,0L88,124,75,138l13,14ZM65,52,52,38,39,52,52,66Zm36,0L88,38,75,52,88,66ZM83,76,70,62,57,76,70,90Z"/></g></svg>