<svg xmlns="http://www.w3.org/2000/svg" viewBox="0 0 140 190"><defs><style>.cls-1{fill:#fff;}</style></defs><g id="bkg"><path class="cls-1" d="M140,7V183q0,7-7,7H7q-7,0-7-7V7Q0,0,7,0H133q7,0,7,7"/></g><g id="face"><path d="M15,34V31.47a.91.91,0,0,1,.27-.63c2.4-2.4,4.53-4.89,6.54-7,1.62-1.8,2.73-3.39,2.73-4.5a2.44,2.44,0,0,0-2.7-2.4,2.45,2.45,0,0,0-2.7,2.46V20a.46.46,0,0,1-.51.51H15.34a.46.46,0,0,1-.51-.51V18.69c.18-3.33,3.12-5.43,7-5.43,4.35,0,7,2.67,7,5.94,0,1.74-.93,3.48-2.52,5.43s-3.48,3.84-5.55,6c-.12.09-.06.21.09.21h7.86a.46.46,0,0,1,.51.51V34a.46.46,0,0,1-.51.51H15.46A.46.46,0,0,1,15,34ZM29.07,47.07,22,40l-7.07,7.07a4.37,4.37,0,0,0,6.15,6.22L19.19,57.5h5.62l-1.89-4.21a4.37,4.37,0,0,0,6.15-6.22Zm96,108.94v2.52a.91.91,0,0,1-.27.63c-2.4,2.4-4.53,4.89-6.54,7.05-1.62,1.8-2.73,3.39-2.73,4.5a2.72,2.72,0,0,0,5.4-.06v-.6a.46.46,0,0,1,.51-.51h3.24a.46.46,0,0,1,.51.51v1.26c-.18,3.33-3.12,5.43-7,5.43-4.35,0-7-2.67-7-5.94,0-1.74.93-3.48,2.52-5.43s3.48-3.84,5.55-6c.12-.09.06-.21-.09-.21h-7.86a.46.46,0,0,1-.51-.51V156a.46.46,0,0,1,.51-.51h13.2A.46.46,0,0,1,125.05,156Zm-14.12-13.08L118,150l7.07-7.07a4.37,4.37,0,0,0-6.15-6.22l1.89-4.21h-5.62l1.89,4.21a4.37,4.37,0,0,0-6.15,6.22ZM81.31,73.31,70,62,58.69,73.31a7,7,0,0,0,9.84,10L65.5,90h9l-3-6.74a7,7,0,0,0,9.84-10Zm0,38L70,100,58.69,111.31a7,7,0,0,0,9.84,10l-3,6.74h9l-3-6.74a7,7,0,0,0,9.84-10Z"/></g></svg>