<svg xmlns="http://www.w3.org/2000/svg" viewBox="0 0 140 190"><defs><style>.cls-1{fill:#fff;}</style></defs><g id="bkg"><path class="cls-1" d="M140,7V183q0,7-7,7H7q-7,0-7-7V7Q0,0,7,0H133q7,0,7,7"/></g><g id="face"><path d="M29.06,27.78a8.16,8.16,0,0,1-.57,3.12,6.53,6.53,0,0,1-6.32,3.81,6.48,6.48,0,0,1-6.42-4,7.77,7.77,0,0,1-.54-2.94v-9c0-3.3,2.76-5.46,6.75-5.46s6.59,2.16,6.59,5.37v.69a.46.46,0,0,1-.51.51H24.83c-.33,0-.51-.15-.51-.33v-.3A2.25,2.25,0,0,0,22,16.89a2.36,2.36,0,0,0-2.52,2.4v2.76c0,.15.08.21.21.09a4.94,4.94,0,0,1,3.23-1,5.89,5.89,0,0,1,5.46,3.21A7.32,7.32,0,0,1,29.06,27.78Zm-4.23.06a3.85,3.85,0,0,0-.48-2,2.39,2.39,0,0,0-2.18-1.2,2.3,2.3,0,0,0-2.25,1.23,4.1,4.1,0,0,0-.46,2,3.92,3.92,0,0,0,.39,1.83,2.35,2.35,0,0,0,2.28,1.32,2.35,2.35,0,0,0,2.25-1.32A3.65,3.65,0,0,0,24.83,27.84Zm86.11,134.38a8.16,8.16,0,0,1,.57-3.12,7.14,7.14,0,0,1,12.74.21,7.77,7.77,0,0,1,.54,2.94v9c0,3.3-2.76,5.46-6.75,5.46s-6.59-2.16-6.59-5.37v-.69a.46.46,0,0,1,.51-.51h3.21c.33,0,.51.15.51.33v.3a2.25,2.25,0,0,0,2.36,2.31,2.36,2.36,0,0,0,2.52-2.4V168c0-.15-.08-.21-.21-.09a4.94,4.94,0,0,1-3.23,1,5.89,5.89,0,0,1-5.46-3.21A7.32,7.32,0,0,1,110.94,162.22Zm4.23-.06a3.85,3.85,0,0,0,.48,2,2.39,2.39,0,0,0,2.18,1.2,2.3,2.3,0,0,0,2.25-1.23,4.1,4.1,0,0,0,.46-2,3.92,3.92,0,0,0-.39-1.83,2.6,2.6,0,0,0-4.53,0A3.65,3.65,0,0,0,115.17,162.16ZM26.25,46.42a4.11,4.11,0,0,0-1.06.15,4,4,0,0,0,.87-2.51,4.06,4.06,0,1,0-8.12,0,4,4,0,0,0,.87,2.51,4.11,4.11,0,0,0-1.06-.15,4.07,4.07,0,1,0,3.4,6.29l-2,4.79h5.62l-2-4.79a4.06,4.06,0,1,0,3.4-6.29Zm87.5,97.16a4.11,4.11,0,0,0,1.06-.15,4,4,0,0,0-.87,2.51,4.06,4.06,0,0,0,8.12,0,4,4,0,0,0-.87-2.51,4.11,4.11,0,0,0,1.06.15,4.07,4.07,0,1,0-3.4-6.29l2-4.79h-5.62l2,4.79a4.06,4.06,0,1,0-3.4,6.29ZM58.5,91.28a6.27,6.27,0,0,0-1.69.23,6.5,6.5,0,1,0-10.22,0,6.27,6.27,0,0,0-1.69-.23,6.5,6.5,0,1,0,5.43,10.06L47.2,109h9l-3.13-7.66A6.5,6.5,0,1,0,58.5,91.28Zm0-38a6.27,6.27,0,0,0-1.69.23,6.5,6.5,0,1,0-10.22,0,6.27,6.27,0,0,0-1.69-.23,6.5,6.5,0,1,0,5.43,10.06L47.2,71h9l-3.13-7.66A6.5,6.5,0,1,0,58.5,53.28Zm0,76a6.27,6.27,0,0,0-1.69.23,6.5,6.5,0,1,0-10.22,0,6.27,6.27,0,0,0-1.69-.23,6.5,6.5,0,1,0,5.43,10.06L47.2,147h9l-3.13-7.66a6.5,6.5,0,1,0,5.43-10.06Zm36.6-38a6.27,6.27,0,0,0-1.69.23,6.5,6.5,0,1,0-10.22,0,6.27,6.27,0,0,0-1.69-.23,6.5,6.5,0,1,0,5.43,10.06L83.8,109h9l-3.13-7.66A6.5,6.5,0,1,0,95.1,91.28Zm0-38a6.27,6.27,0,0,0-1.69.23,6.5,6.5,0,1,0-10.22,0,6.27,6.27,0,0,0-1.69-.23,6.5,6.5,0,1,0,5.43,10.06L83.8,71h9l-3.13-7.66A6.5,6.5,0,1,0,95.1,53.28Zm0,76a6.27,6.27,0,0,0-1.69.23,6.5,6.5,0,1,0-10.22,0,6.27,6.27,0,0,0-1.69-.23,6.5,6.5,0,1,0,5.43,10.06L83.8,147h9l-3.13-7.66a6.5,6.5,0,1,0,5.43-10.06Z"/></g></svg>