<svg xmlns="http://www.w3.org/2000/svg" viewBox="0 0 140 190"><defs><style>.cls-1{fill:#fff;}.cls-2{fill:#c93f3f;}</style></defs><g id="bkg"><path class="cls-1" d="M140,7V183q0,7-7,7H7q-7,0-7-7V7Q0,0,7,0H133q7,0,7,7"/></g><g id="face"><path class="cls-2" d="M30.67,33.9c.21.33.06.6-.33.6H26.71a.63.63,0,0,1-.6-.33l-5.25-8.52c-.06-.12-.18-.12-.27,0L18.76,28c-.06.09-.09.12-.09.21V34a.46.46,0,0,1-.51.51H15a.46.46,0,0,1-.51-.51V14A.46.46,0,0,1,15,13.5h3.21a.46.46,0,0,1,.51.51V22.2c0,.15.12.21.21.09l6.84-8.49a.72.72,0,0,1,.63-.3H30c.42,0,.57.27.3.63l-6.54,8.34a.18.18,0,0,0,0,.24Zm94.38,121.6h-3.21a.46.46,0,0,0-.51.51v5.79c0,.09,0,.12-.09.21l-1.83,2.34c-.09.12-.21.12-.27,0l-5.25-8.52a.63.63,0,0,0-.6-.33h-3.63c-.39,0-.54.27-.33.6l6.93,11.19a.18.18,0,0,1,0,.24l-6.54,8.34c-.27.36-.12.63.3.63h3.63a.72.72,0,0,0,.63-.3l6.84-8.49c.09-.12.21-.06.21.09V176a.46.46,0,0,0,.51.51h3.21a.46.46,0,0,0,.51-.51V156A.46.46,0,0,0,125.05,155.5ZM40,125h60V115H40Zm66.7-54.19-8.8,4a1,1,0,0,0-.57.7L93.64,92.88l-4.32-1.44,6.27-29.51a1,1,0,0,0-1.39-1.12l-8.8,4a1,1,0,0,0-.57.7L80,88.33l-4.22-1.41L83,47.5a1,1,0,0,0-1.58-1L70.6,54.56a1,1,0,0,1-1.2,0L58.54,46.51a1,1,0,0,0-1.58,1l7.28,39.42L60,88.33,55.17,65.49a1,1,0,0,0-.57-.7l-8.8-4a1,1,0,0,0-1.39,1.12l6.27,29.51-4.32,1.44L42.67,75.49a1,1,0,0,0-.57-.7l-8.8-4a1,1,0,0,0-1.39,1.12l7.92,37.28a1,1,0,0,0,1,.79H99.19a1,1,0,0,0,1-.79l7.92-37.28A1,1,0,0,0,106.7,70.81ZM22.88,41.28A4.37,4.37,0,0,0,22,42.56a4.37,4.37,0,1,0-7.07,4.91L22,54.54l7.07-7.07a4.38,4.38,0,1,0-6.19-6.19Zm94.24,107.44a4.37,4.37,0,0,0,.88-1.28,4.37,4.37,0,1,0,7.07-4.91L118,135.46l-7.07,7.07a4.38,4.38,0,0,0,6.19,6.19Z"/></g></svg>