<svg xmlns="http://www.w3.org/2000/svg" viewBox="0 0 140 190"><defs><style>.cls-1{fill:#fff;}.cls-2{fill:#c93f3f;}</style></defs><g id="bkg"><path class="cls-1" d="M140,7V183q0,7-7,7H7q-7,0-7-7V7Q0,0,7,0H133q7,0,7,7"/></g><g id="face"><path class="cls-2" d="M28.71,20.25v9c0,3.3-2.76,5.46-6.75,5.46s-6.6-2.16-6.6-5.37v-.69a.46.46,0,0,1,.51-.51h3.21c.32,0,.5.12.5.3v.33A2.26,2.26,0,0,0,22,31.11a2.36,2.36,0,0,0,2.51-2.4V26c0-.15-.09-.21-.21-.09a4.94,4.94,0,0,1-3.23,1,5.89,5.89,0,0,1-5.47-3.21,7.32,7.32,0,0,1-.71-3.45,8,8,0,0,1,.57-3.12,6.52,6.52,0,0,1,6.32-3.81,6.48,6.48,0,0,1,6.42,4A7.77,7.77,0,0,1,28.71,20.25Zm-4.26-.15a3.92,3.92,0,0,0-.4-1.83A2.35,2.35,0,0,0,21.78,17a2.36,2.36,0,0,0-2.25,1.32,3.65,3.65,0,0,0-.45,1.89,3.94,3.94,0,0,0,.47,2,2.42,2.42,0,0,0,2.19,1.2A2.32,2.32,0,0,0,24,22.11,4.21,4.21,0,0,0,24.45,20.1Zm86.84,149.65v-9c0-3.3,2.76-5.46,6.75-5.46s6.6,2.16,6.6,5.37v.69a.46.46,0,0,1-.51.51h-3.21c-.32,0-.5-.12-.5-.3v-.33a2.26,2.26,0,0,0-2.38-2.31,2.36,2.36,0,0,0-2.51,2.4v2.76c0,.15.09.21.21.09a4.94,4.94,0,0,1,3.23-1,5.89,5.89,0,0,1,5.47,3.21,7.32,7.32,0,0,1,.71,3.45,8,8,0,0,1-.57,3.12,7.14,7.14,0,0,1-12.74-.21A7.77,7.77,0,0,1,111.29,169.75Zm4.26.15a3.92,3.92,0,0,0,.4,1.83,2.59,2.59,0,0,0,4.52,0,3.65,3.65,0,0,0,.45-1.89,3.94,3.94,0,0,0-.47-2,2.42,2.42,0,0,0-2.19-1.2,2.32,2.32,0,0,0-2.25,1.23A4.21,4.21,0,0,0,115.55,169.9ZM22.88,41.28A4.37,4.37,0,0,0,22,42.56a4.37,4.37,0,1,0-7.07,4.91L22,54.54l7.07-7.07a4.38,4.38,0,1,0-6.19-6.19Zm94.24,107.44a4.37,4.37,0,0,0,.88-1.28,4.37,4.37,0,1,0,7.07-4.91L118,135.46l-7.07,7.07a4.38,4.38,0,0,0,6.19,6.19ZM53.05,107.05a6.84,6.84,0,0,0-1.41,2A7,7,0,1,0,40.32,117l11.32,11.31L63,117a7,7,0,0,0-9.9-9.9Zm36.73,0a7.06,7.06,0,0,0-1.42,2,6.84,6.84,0,0,0-1.41-2,7,7,0,0,0-9.9,9.9l11.31,11.31L99.68,117a7,7,0,0,0-9.9-9.9ZM53.05,140.31a6.84,6.84,0,0,0-1.41,2.05,7,7,0,1,0-11.32,7.85l11.32,11.32L63,150.21a7,7,0,1,0-9.9-9.9Zm36.73,0a7.06,7.06,0,0,0-1.42,2.05A6.84,6.84,0,0,0,87,140.31a7,7,0,1,0-9.9,9.9l11.31,11.32,11.32-11.32a7,7,0,1,0-9.9-9.9ZM53.05,63.79a6.71,6.71,0,0,0-1.41,2.05,7,7,0,0,0-11.32-2.05,7,7,0,0,0,0,9.9L51.64,85,63,73.69a7,7,0,1,0-9.9-9.9Zm36.73,0a6.93,6.93,0,0,0-1.42,2.05A6.71,6.71,0,0,0,87,63.79a7,7,0,1,0-9.9,9.9L88.36,85,99.68,73.69a7,7,0,1,0-9.9-9.9ZM53.05,30.52a6.84,6.84,0,0,0-1.41,2.05,7,7,0,1,0-11.32,7.85L51.64,51.74,63,40.42a7,7,0,1,0-9.9-9.9Zm36.73,0a7.06,7.06,0,0,0-1.42,2.05A6.84,6.84,0,0,0,87,30.52a7,7,0,0,0-9.9,9.9L88.36,51.74,99.68,40.42a7,7,0,1,0-9.9-9.9ZM71.41,85.42a7,7,0,0,0-1.41,2,7,7,0,1,0-11.31,7.85L70,106.63,81.31,95.32a7,7,0,0,0-9.9-9.9Z"/></g></svg>