<svg xmlns="http://www.w3.org/2000/svg" viewBox="0 0 140 190"><defs><style>.cls-1{fill:#fff;}</style></defs><g id="bkg"><path class="cls-1" d="M140,7V183q0,7-7,7H7q-7,0-7-7V7Q0,0,7,0H133q7,0,7,7"/></g><g id="face"><path d="M13,13.5h3.4a.45.45,0,0,1,.5.51V34a.45.45,0,0,1-.5.51H13.17a.45.45,0,0,1-.51-.51V17.64a.17.17,0,0,0-.21-.18L9.8,18a.43.43,0,0,1-.56-.45V15.27a.55.55,0,0,1,.38-.57l2.74-1.08A1.43,1.43,0,0,1,13,13.5ZM19.92,28V20c0-4.17,2.72-6.78,7.13-6.78s7.17,2.61,7.17,6.78V28c0,4.23-2.76,6.87-7.17,6.87S19.92,32.19,19.92,28ZM30,28.17V19.92a2.78,2.78,0,0,0-2.94-3,2.78,2.78,0,0,0-2.91,3v8.25a2.78,2.78,0,0,0,2.91,3A2.78,2.78,0,0,0,30,28.17ZM127,176.5h-3.4a.45.45,0,0,1-.5-.51V156a.45.45,0,0,1,.5-.51h3.21a.45.45,0,0,1,.51.51v16.35a.17.17,0,0,0,.21.18l2.65-.54a.43.43,0,0,1,.56.45v2.28a.55.55,0,0,1-.38.57l-2.74,1.08A1.43,1.43,0,0,1,127,176.5ZM120.08,162V170c0,4.17-2.72,6.78-7.13,6.78s-7.17-2.61-7.17-6.78V162c0-4.23,2.76-6.87,7.17-6.87S120.08,157.81,120.08,162ZM110,161.83v8.25a2.93,2.93,0,1,0,5.85,0v-8.25a2.93,2.93,0,1,0-5.85,0ZM29.07,47.07,22,40l-7.07,7.07a4.37,4.37,0,0,0,6.15,6.22L19.19,57.5h5.62l-1.89-4.21a4.37,4.37,0,0,0,6.15-6.22Zm81.86,95.86L118,150l7.07-7.07a4.37,4.37,0,0,0-6.15-6.22l1.89-4.21h-5.62l1.89,4.21a4.37,4.37,0,0,0-6.15,6.22ZM63,25.31,51.64,14,40.32,25.31a7,7,0,0,0,9.85,10l-3,6.74h9l-3-6.74A7,7,0,0,0,63,25.31Zm36.73,0L88.36,14,77.05,25.31a7,7,0,0,0,9.85,10l-3,6.74h9l-3-6.74a7,7,0,0,0,9.85-9.95Zm0,48L88.36,62,77.05,73.31a7,7,0,0,0,9.85,10l-3,6.74h9l-3-6.74a7,7,0,0,0,9.85-10ZM63,73.31,51.64,62,40.32,73.31a7,7,0,0,0,9.85,10l-3,6.74h9l-3-6.74a7,7,0,0,0,9.85-10Zm18.36-24L70,38,58.69,49.31a7,7,0,0,0,9.84,9.95L65.5,66h9l-3-6.74a7,7,0,0,0,9.84-9.95ZM63,111.31,51.64,100,40.32,111.31a7,7,0,0,0,9.85,10l-3,6.74h9l-3-6.74a7,7,0,0,0,9.85-10Zm36.73,0L88.36,100,77.05,111.31a7,7,0,0,0,9.85,10l-3,6.74h9l-3-6.74a7,7,0,0,0,9.85-10Zm0,48L88.36,148,77.05,159.31a7,7,0,0,0,9.85,9.95l-3,6.74h9l-3-6.74a7,7,0,0,0,9.85-9.95Zm-36.73,0L51.64,148,40.32,159.31a7,7,0,0,0,9.85,9.95l-3,6.74h9l-3-6.74A7,7,0,0,0,63,159.31Zm18.36-24L70,124,58.69,135.31a7,7,0,0,0,9.84,9.95l-3,6.74h9l-3-6.74a7,7,0,0,0,9.84-9.95Z"/></g></svg>