<svg xmlns="http://www.w3.org/2000/svg" viewBox="0 0 140 190"><defs><style>.cls-1{fill:#fff;}</style></defs><g id="bkg"><path class="cls-1" d="M140,7V183q0,7-7,7H7q-7,0-7-7V7Q0,0,7,0H133q7,0,7,7"/></g><g id="face"><path d="M29,28.38a6.32,6.32,0,0,1-.7,3.06c-1,2-3.29,3.3-6.29,3.3-2.79,0-5.1-1.14-6.25-3.36a6.48,6.48,0,0,1-.71-3,7.12,7.12,0,0,1,.69-3.12,5,5,0,0,1,1.52-1.74c.12-.09.12-.18,0-.24a5.61,5.61,0,0,1-1.38-1.5A5.2,5.2,0,0,1,15.12,19a5.56,5.56,0,0,1,1-3.27A6.92,6.92,0,0,1,22,13.11c2.89,0,5.1,1.05,6.22,3.21a6.2,6.2,0,0,1,.68,2.73,4.7,4.7,0,0,1-.75,2.64,7.13,7.13,0,0,1-1.43,1.53c-.13.06-.13.15,0,.24a4.39,4.39,0,0,1,1.59,1.8A6.86,6.86,0,0,1,29,28.38Zm-9.64-8.85a3,3,0,0,0,.42,1.59A2.51,2.51,0,0,0,22,22.26a2.55,2.55,0,0,0,2.34-1.17,3.12,3.12,0,0,0,.39-1.59,3.09,3.09,0,0,0-.29-1.41A2.58,2.58,0,0,0,22,16.74,2.51,2.51,0,0,0,19.62,18,3.44,3.44,0,0,0,19.31,19.53ZM24.71,28a4.34,4.34,0,0,0-.29-1.56A2.49,2.49,0,0,0,22,24.9a2.43,2.43,0,0,0-2.34,1.47A4.22,4.22,0,0,0,19.31,28a4,4,0,0,0,.48,2A2.47,2.47,0,0,0,22,31.17a2.48,2.48,0,0,0,2.16-1.05A3.84,3.84,0,0,0,24.71,28Zm86.34,133.66a6.32,6.32,0,0,1,.7-3.06c1-2,3.29-3.3,6.29-3.3,2.79,0,5.1,1.14,6.25,3.36a6.48,6.48,0,0,1,.71,3,7.12,7.12,0,0,1-.69,3.12,5,5,0,0,1-1.52,1.74c-.12.09-.12.18,0,.24a5.61,5.61,0,0,1,1.38,1.5,5.2,5.2,0,0,1,.71,2.73,5.56,5.56,0,0,1-1,3.27,6.92,6.92,0,0,1-5.87,2.64c-2.89,0-5.1-1-6.22-3.21a6.2,6.2,0,0,1-.68-2.73,4.7,4.7,0,0,1,.75-2.64,7.13,7.13,0,0,1,1.43-1.53c.13-.06.13-.15,0-.24a4.39,4.39,0,0,1-1.59-1.8A6.86,6.86,0,0,1,111.05,161.62Zm4.24.42a4.34,4.34,0,0,0,.29,1.56,2.49,2.49,0,0,0,2.44,1.5,2.43,2.43,0,0,0,2.34-1.47,4.22,4.22,0,0,0,.33-1.65,4,4,0,0,0-.48-2,2.71,2.71,0,0,0-4.35-.09A3.84,3.84,0,0,0,115.29,162Zm5.4,8.43a3,3,0,0,0-.42-1.59,2.51,2.51,0,0,0-2.25-1.14,2.55,2.55,0,0,0-2.34,1.17,3.12,3.12,0,0,0-.39,1.59,3.09,3.09,0,0,0,.29,1.41,2.58,2.58,0,0,0,2.44,1.35,2.51,2.51,0,0,0,2.36-1.29A3.44,3.44,0,0,0,120.69,170.47Zm-94.44-124a4.11,4.11,0,0,0-1.06.15,4,4,0,0,0,.87-2.51,4.06,4.06,0,1,0-8.12,0,4,4,0,0,0,.87,2.51,4.11,4.11,0,0,0-1.06-.15,4.07,4.07,0,1,0,3.4,6.29l-2,4.79h5.62l-2-4.79a4.06,4.06,0,1,0,3.4-6.29Zm87.5,97.16a4.11,4.11,0,0,0,1.06-.15,4,4,0,0,0-.87,2.51,4.06,4.06,0,0,0,8.12,0,4,4,0,0,0-.87-2.51,4.11,4.11,0,0,0,1.06.15,4.07,4.07,0,1,0-3.4-6.29l2-4.79h-5.62l2,4.79a4.06,4.06,0,1,0-3.4,6.29ZM58.5,34.28a6.27,6.27,0,0,0-1.69.23,6.5,6.5,0,1,0-10.22,0,6.27,6.27,0,0,0-1.69-.23,6.5,6.5,0,1,0,5.43,10.06L47.2,52h9l-3.13-7.66A6.5,6.5,0,1,0,58.5,34.28Zm0,38a6.27,6.27,0,0,0-1.69.23,6.5,6.5,0,1,0-10.22,0,6.27,6.27,0,0,0-1.69-.23,6.5,6.5,0,1,0,5.43,10.06L47.2,90h9l-3.13-7.66A6.5,6.5,0,1,0,58.5,72.28Zm36.6-38a6.27,6.27,0,0,0-1.69.23,6.5,6.5,0,1,0-10.22,0,6.27,6.27,0,0,0-1.69-.23,6.5,6.5,0,1,0,5.43,10.06L83.8,52h9l-3.13-7.66A6.5,6.5,0,1,0,95.1,34.28Zm0,38a6.27,6.27,0,0,0-1.69.23,6.5,6.5,0,1,0-10.22,0,6.27,6.27,0,0,0-1.69-.23,6.5,6.5,0,1,0,5.43,10.06L83.8,90h9l-3.13-7.66A6.5,6.5,0,1,0,95.1,72.28Zm-36.6,38a6.27,6.27,0,0,0-1.69.23,6.5,6.5,0,1,0-10.22,0,6.27,6.27,0,0,0-1.69-.23,6.5,6.5,0,1,0,5.43,10.06L47.2,128h9l-3.13-7.66a6.5,6.5,0,1,0,5.43-10.06Zm0,38a6.27,6.27,0,0,0-1.69.23,6.5,6.5,0,1,0-10.22,0,6.27,6.27,0,0,0-1.69-.23,6.5,6.5,0,1,0,5.43,10.06L47.2,166h9l-3.13-7.66a6.5,6.5,0,1,0,5.43-10.06Zm36.6-38a6.27,6.27,0,0,0-1.69.23,6.5,6.5,0,1,0-10.22,0,6.27,6.27,0,0,0-1.69-.23,6.5,6.5,0,1,0,5.43,10.06L83.8,128h9l-3.13-7.66a6.5,6.5,0,1,0,5.43-10.06Zm0,38a6.27,6.27,0,0,0-1.69.23,6.5,6.5,0,1,0-10.22,0,6.27,6.27,0,0,0-1.69-.23,6.5,6.5,0,1,0,5.43,10.06L83.8,166h9l-3.13-7.66a6.5,6.5,0,1,0,5.43-10.06Z"/></g></svg>