<svg xmlns="http://www.w3.org/2000/svg" viewBox="0 0 140 190"><defs><style>.cls-1{fill:#fff;}.cls-2{fill:#1c1c1c;}</style></defs><g id="bkg"><path class="cls-1" d="M140,7V183q0,7-7,7H7q-7,0-7-7V7Q0,0,7,0H133q7,0,7,7"/></g><g id="face"><path class="cls-2" d="M83.3,97.78a6.49,6.49,0,0,1-11.93,3.56L74.5,109h-9l3.13-7.66A6.5,6.5,0,1,1,63.2,91.28a6.27,6.27,0,0,1,1.69.23,6.5,6.5,0,1,1,10.22,0,6.27,6.27,0,0,1,1.69-.23A6.5,6.5,0,0,1,83.3,97.78Zm-57-51.36a4.11,4.11,0,0,0-1.06.15,4,4,0,0,0,.87-2.51,4.06,4.06,0,1,0-8.12,0,4,4,0,0,0,.87,2.51,4.11,4.11,0,0,0-1.06-.15,4.07,4.07,0,1,0,3.4,6.29l-2,4.79h5.62l-2-4.79a4.06,4.06,0,1,0,3.4-6.29Zm87.5,97.16a4.11,4.11,0,0,0,1.06-.15,4,4,0,0,0-.87,2.51,4.06,4.06,0,0,0,8.12,0,4,4,0,0,0-.87-2.51,4.11,4.11,0,0,0,1.06.15,4.07,4.07,0,1,0-3.4-6.29l2-4.79h-5.62l2,4.79a4.06,4.06,0,1,0-3.4,6.29ZM27.26,34.5h3.48c.36,0,.54-.24.42-.57l-6.39-20a.55.55,0,0,0-.57-.42H19.79a.55.55,0,0,0-.57.42l-6.39,20a.4.4,0,0,0,.42.57h3.48a.55.55,0,0,0,.57-.42l.85-2.79c0-.12.08-.15.17-.15h7.35c.09,0,.15,0,.18.15l.84,2.79A.55.55,0,0,0,27.26,34.5Zm-8.07-6.84,2.67-9.15c.06-.15.18-.15.24,0l2.7,9.15c0,.15,0,.21-.15.21H19.34C19.22,27.87,19.16,27.81,19.19,27.66ZM112.74,155.5h-3.48c-.36,0-.54.24-.42.57l6.39,20a.55.55,0,0,0,.57.42h4.41a.55.55,0,0,0,.57-.42l6.39-20a.4.4,0,0,0-.42-.57h-3.48a.55.55,0,0,0-.57.42l-.85,2.79c0,.12-.08.15-.17.15h-7.35c-.09,0-.15,0-.18-.15l-.84-2.79A.55.55,0,0,0,112.74,155.5Zm8.07,6.84-2.67,9.15c-.06.15-.18.15-.24,0l-2.7-9.15c0-.15,0-.21.15-.21h5.31C120.78,162.13,120.84,162.19,120.81,162.34Z"/></g></svg>