<svg xmlns="http://www.w3.org/2000/svg" viewBox="0 0 140 190"><defs><style>.cls-1{fill:#fff;}</style></defs><g id="bkg"><path class="cls-1" d="M140,7V183q0,7-7,7H7q-7,0-7-7V7Q0,0,7,0H133q7,0,7,7"/></g><g id="face"><path d="M29.66,25.86v2.73a.46.46,0,0,1-.51.51H28.07a.16.16,0,0,0-.18.18V34a.46.46,0,0,1-.51.51H24.17a.45.45,0,0,1-.5-.51V29.28a.17.17,0,0,0-.19-.18h-9a.46.46,0,0,1-.51-.51V26.43A1.57,1.57,0,0,1,14,25.8l5.34-11.91a.66.66,0,0,1,.6-.39H23.4a.38.38,0,0,1,.38.6l-4.91,11c-.06.15,0,.21.15.21h4.46a.17.17,0,0,0,.19-.18V21.63a.45.45,0,0,1,.5-.51h3.21a.46.46,0,0,1,.51.51v3.54a.17.17,0,0,0,.18.18h1.08A.46.46,0,0,1,29.66,25.86Zm80.68,138.28v-2.73a.46.46,0,0,1,.51-.51h1.08a.16.16,0,0,0,.18-.18V156a.46.46,0,0,1,.51-.51h3.21a.45.45,0,0,1,.5.51v4.71a.17.17,0,0,0,.19.18h9a.46.46,0,0,1,.51.51v2.16a1.57,1.57,0,0,1-.12.63l-5.34,11.91a.66.66,0,0,1-.6.39H116.6a.38.38,0,0,1-.38-.6l4.91-11c.06-.15,0-.21-.15-.21h-4.46a.17.17,0,0,0-.19.18v3.54a.45.45,0,0,1-.5.51h-3.21a.46.46,0,0,1-.51-.51v-3.54a.17.17,0,0,0-.18-.18h-1.08A.46.46,0,0,1,110.34,164.14ZM26.25,46.42a4.11,4.11,0,0,0-1.06.15,4,4,0,0,0,.87-2.51,4.06,4.06,0,1,0-8.12,0,4,4,0,0,0,.87,2.51,4.11,4.11,0,0,0-1.06-.15,4.07,4.07,0,1,0,3.4,6.29l-2,4.79h5.62l-2-4.79a4.06,4.06,0,1,0,3.4-6.29Zm87.5,97.16a4.11,4.11,0,0,0,1.06-.15,4,4,0,0,0-.87,2.51,4.06,4.06,0,0,0,8.12,0,4,4,0,0,0-.87-2.51,4.11,4.11,0,0,0,1.06.15,4.07,4.07,0,1,0-3.4-6.29l2-4.79h-5.62l2,4.79a4.06,4.06,0,1,0-3.4,6.29ZM58.5,72.28a6.27,6.27,0,0,0-1.69.23,6.5,6.5,0,1,0-10.22,0,6.27,6.27,0,0,0-1.69-.23,6.5,6.5,0,1,0,5.43,10.06L47.2,90h9l-3.13-7.66A6.5,6.5,0,1,0,58.5,72.28Zm0,38a6.27,6.27,0,0,0-1.69.23,6.5,6.5,0,1,0-10.22,0,6.27,6.27,0,0,0-1.69-.23,6.5,6.5,0,1,0,5.43,10.06L47.2,128h9l-3.13-7.66a6.5,6.5,0,1,0,5.43-10.06Zm36.6-38a6.27,6.27,0,0,0-1.69.23,6.5,6.5,0,1,0-10.22,0,6.27,6.27,0,0,0-1.69-.23,6.5,6.5,0,1,0,5.43,10.06L83.8,90h9l-3.13-7.66A6.5,6.5,0,1,0,95.1,72.28Zm0,38a6.27,6.27,0,0,0-1.69.23,6.5,6.5,0,1,0-10.22,0,6.27,6.27,0,0,0-1.69-.23,6.5,6.5,0,1,0,5.43,10.06L83.8,128h9l-3.13-7.66a6.5,6.5,0,1,0,5.43-10.06Z"/></g></svg>