<svg xmlns="http://www.w3.org/2000/svg" viewBox="0 0 140 190"><defs><style>.cls-1{fill:#fff;}.cls-2{fill:#c93f3f;}</style></defs><g id="bkg"><path class="cls-1" d="M140,7V183q0,7-7,7H7q-7,0-7-7V7Q0,0,7,0H133q7,0,7,7"/></g><g id="face"><path class="cls-2" d="M15,34V31.47a.91.91,0,0,1,.27-.63c2.4-2.4,4.53-4.89,6.54-7,1.62-1.8,2.73-3.39,2.73-4.5a2.44,2.44,0,0,0-2.7-2.4,2.45,2.45,0,0,0-2.7,2.46V20a.46.46,0,0,1-.51.51H15.34a.46.46,0,0,1-.51-.51V18.69c.18-3.33,3.12-5.43,7-5.43,4.35,0,7,2.67,7,5.94,0,1.74-.93,3.48-2.52,5.43s-3.48,3.84-5.55,6c-.12.09-.06.21.09.21h7.86a.46.46,0,0,1,.51.51V34a.46.46,0,0,1-.51.51H15.46A.46.46,0,0,1,15,34Zm110.1,122v2.52a.91.91,0,0,1-.27.63c-2.4,2.4-4.53,4.89-6.54,7.05-1.62,1.8-2.73,3.39-2.73,4.5a2.72,2.72,0,0,0,5.4-.06v-.6a.46.46,0,0,1,.51-.51h3.24a.46.46,0,0,1,.51.51v1.26c-.18,3.33-3.12,5.43-7,5.43-4.35,0-7-2.67-7-5.94,0-1.74.93-3.48,2.52-5.43s3.48-3.84,5.55-6c.12-.09.06-.21-.09-.21h-7.86a.46.46,0,0,1-.51-.51V156a.46.46,0,0,1,.51-.51h13.2A.46.46,0,0,1,125.05,156ZM22.88,41.28A4.37,4.37,0,0,0,22,42.56a4.37,4.37,0,1,0-7.07,4.91L22,54.54l7.07-7.07a4.38,4.38,0,1,0-6.19-6.19Zm94.24,107.44a4.37,4.37,0,0,0,.88-1.28,4.37,4.37,0,1,0,7.07-4.91L118,135.46l-7.07,7.07a4.38,4.38,0,0,0,6.19,6.19ZM71.41,102.05a7,7,0,0,0-1.41,2A7,7,0,1,0,58.69,112L70,123.26,81.31,112a7,7,0,0,0-9.9-9.9Zm0-33.26a6.89,6.89,0,0,0-1.41,2,6.89,6.89,0,0,0-1.41-2,7,7,0,0,0-9.9,9.9L70,90,81.31,78.69a7,7,0,0,0-9.9-9.9Z"/></g></svg>