<svg xmlns="http://www.w3.org/2000/svg" viewBox="0 0 140 190"><defs><style>.cls-1{fill:#fff;}.cls-2{fill:#1c1c1c;}</style></defs><g id="bkg"><path class="cls-1" d="M140,7V183q0,7-7,7H7q-7,0-7-7V7Q0,0,7,0H133q7,0,7,7"/></g><g id="face"><path class="cls-2" d="M30.31,50.49a4.06,4.06,0,0,1-7.46,2.22l2,4.79H19.19l2-4.79a4.06,4.06,0,1,1-3.4-6.29,4.11,4.11,0,0,1,1.06.15,4,4,0,0,1-.87-2.51,4.06,4.06,0,1,1,8.12,0,4,4,0,0,1-.87,2.51,4.11,4.11,0,0,1,1.06-.15A4.07,4.07,0,0,1,30.31,50.49Zm83.44,93.09a4.11,4.11,0,0,0,1.06-.15,4,4,0,0,0-.87,2.51,4.06,4.06,0,0,0,8.12,0,4,4,0,0,0-.87-2.51,4.11,4.11,0,0,0,1.06.15,4.07,4.07,0,1,0-3.4-6.29l2-4.79h-5.62l2,4.79a4.06,4.06,0,1,0-3.4,6.29ZM22,13.26c-4.56,0-7.65,3-7.65,7.53v6.72a6.86,6.86,0,0,0,5.43,7,.19.19,0,0,1,.15.18v2.25a.46.46,0,0,0,.51.51h3.21a.46.46,0,0,0,.51-.51V34.65a.2.2,0,0,1,.15-.18,6.8,6.8,0,0,0,5.37-7V20.79C29.66,16.26,26.6,13.26,22,13.26Zm3.45,14.16a3.44,3.44,0,1,1-6.87,0V20.58a3.44,3.44,0,1,1,6.87,0ZM118,176.74c4.56,0,7.65-3,7.65-7.53v-6.72a6.86,6.86,0,0,0-5.43-7,.19.19,0,0,1-.15-.18v-2.25a.46.46,0,0,0-.51-.51h-3.21a.46.46,0,0,0-.51.51v2.28a.2.2,0,0,1-.15.18,6.8,6.8,0,0,0-5.37,7v6.72C110.34,173.74,113.4,176.74,118,176.74Zm-3.45-14.16a3.44,3.44,0,1,1,6.87,0v6.84a3.44,3.44,0,1,1-6.87,0ZM40,125h60V115H40Zm70.5-45a4,4,0,0,1-4.85,3.91l-5.48,25.3a1,1,0,0,1-1,.79H40.81a1,1,0,0,1-1-.79l-5.48-25.3A4,4,0,1,1,37.5,80a4,4,0,0,1-1.33,3l5.11,5.68a1,1,0,0,0,1.7-.4l4-14.4a4,4,0,1,1,3.35-.57l7.21,10.3a1,1,0,0,0,1.73-.15l9.1-19.79a4,4,0,1,1,3.34,0l9.1,19.79a1,1,0,0,0,1.73.15l7.21-10.3a4,4,0,1,1,3.35.57l4,14.4a1,1,0,0,0,1.7.4L103.83,83a4,4,0,1,1,6.67-3Z"/></g></svg>