<svg xmlns="http://www.w3.org/2000/svg" viewBox="0 0 140 190"><defs><style>.cls-1{fill:#fff;}</style></defs><g id="bkg"><path class="cls-1" d="M140,7V183q0,7-7,7H7q-7,0-7-7V7Q0,0,7,0H133q7,0,7,7"/></g><g id="face"><path d="M29.66,25.86v2.73a.46.46,0,0,1-.51.51H28.07a.16.16,0,0,0-.18.18V34a.46.46,0,0,1-.51.51H24.17a.45.45,0,0,1-.5-.51V29.28a.17.17,0,0,0-.19-.18h-9a.46.46,0,0,1-.51-.51V26.43A1.57,1.57,0,0,1,14,25.8l5.34-11.91a.66.66,0,0,1,.6-.39H23.4a.38.38,0,0,1,.38.6l-4.91,11c-.06.15,0,.21.15.21h4.46a.17.17,0,0,0,.19-.18V21.63a.45.45,0,0,1,.5-.51h3.21a.46.46,0,0,1,.51.51v3.54a.17.17,0,0,0,.18.18h1.08A.46.46,0,0,1,29.66,25.86Zm-.59,21.21L22,40l-7.07,7.07a4.37,4.37,0,0,0,6.15,6.22L19.19,57.5h5.62l-1.89-4.21a4.37,4.37,0,0,0,6.15-6.22Zm81.27,117.07v-2.73a.46.46,0,0,1,.51-.51h1.08a.16.16,0,0,0,.18-.18V156a.46.46,0,0,1,.51-.51h3.21a.45.45,0,0,1,.5.51v4.71a.17.17,0,0,0,.19.18h9a.46.46,0,0,1,.51.51v2.16a1.57,1.57,0,0,1-.12.63l-5.34,11.91a.66.66,0,0,1-.6.39H116.6a.38.38,0,0,1-.38-.6l4.91-11c.06-.15,0-.21-.15-.21h-4.46a.17.17,0,0,0-.19.18v3.54a.45.45,0,0,1-.5.51h-3.21a.46.46,0,0,1-.51-.51v-3.54a.17.17,0,0,0-.18-.18h-1.08A.46.46,0,0,1,110.34,164.14Zm.59-21.21L118,150l7.07-7.07a4.37,4.37,0,0,0-6.15-6.22l1.89-4.21h-5.62l1.89,4.21a4.37,4.37,0,0,0-6.15,6.22ZM63,73.31,51.64,62,40.32,73.31a7,7,0,0,0,9.85,10l-3,6.74h9l-3-6.74a7,7,0,0,0,9.85-10Zm36.73,0L88.36,62,77.05,73.31a7,7,0,0,0,9.85,10l-3,6.74h9l-3-6.74a7,7,0,0,0,9.85-10Zm0,38L88.36,100,77.05,111.31a7,7,0,0,0,9.85,10l-3,6.74h9l-3-6.74a7,7,0,0,0,9.85-10Zm-36.73,0L51.64,100,40.32,111.31a7,7,0,0,0,9.85,10l-3,6.74h9l-3-6.74a7,7,0,0,0,9.85-10Z"/></g></svg>