<svg id="Outlined" xmlns="http://www.w3.org/2000/svg" viewBox="0 0 29 29"><defs><style>.cls-1{fill:#8477ff;}</style></defs><path class="cls-1" d="M22.38,28.38a1.76,1.76,0,0,1-.83-.21l-7-3.71-7,3.71A1.74,1.74,0,0,1,5.59,28a1.77,1.77,0,0,1-.7-1.72l1.35-7.86L.53,12.9a1.76,1.76,0,0,1-.44-1.81A1.73,1.73,0,0,1,1.51,9.9L9.39,8.75,12.92,1.6a1.77,1.77,0,0,1,1.58-1h0a1.76,1.76,0,0,1,1.58,1l3.53,7.15L27.49,9.9a1.73,1.73,0,0,1,1.42,1.19,1.76,1.76,0,0,1-.44,1.81l-5.71,5.56,1.35,7.86a1.77,1.77,0,0,1-1.73,2.06ZM14.5,22.43a1.84,1.84,0,0,1,.82.2l6.73,3.55-1.28-7.5a1.76,1.76,0,0,1,.5-1.56l5.45-5.31-7.53-1.1a1.73,1.73,0,0,1-1.32-1L14.5,2.93,11.13,9.75a1.73,1.73,0,0,1-1.32,1l-7.53,1.1,5.45,5.31a1.75,1.75,0,0,1,.5,1.55L7,26.18l6.73-3.55A1.84,1.84,0,0,1,14.5,22.43Z"/></svg>