<svg id="Outlined" xmlns="http://www.w3.org/2000/svg" viewBox="0 0 39 29"><defs><style>.cls-1{fill:#8477ff;}</style></defs><path class="cls-1" d="M7.67,3.67c-3.2,0-5.11,1.72-5.11,5.47V20.3c0,3.74,1.91,5.5,5.11,5.5s5.12-1.76,5.12-5.5V16H8a.94.94,0,0,1-.86-1A.93.93,0,0,1,8,14H14.3a.85.85,0,0,1,.86.94v5.4c0,5.61-3.27,7.7-7.49,7.7S.19,25.91.19,20.3V9.14c0-5.58,3.27-7.67,7.45-7.67,4.61,0,7.52,2.63,7.52,6.23,0,.93-.47,1.22-1.19,1.22s-1.15-.25-1.18-.9C12.46,5.25,10.81,3.67,7.67,3.67ZM17.86,20.3V9.14c0-5.58,3.28-7.67,7.49-7.67s7.49,2.09,7.49,7.67V20.3c0,5.61-3.28,7.7-7.49,7.7S17.86,25.91,17.86,20.3ZM30.46,9.14c0-3.75-1.91-5.47-5.11-5.47s-5.11,1.72-5.11,5.47V20.3c0,3.77,1.91,5.5,5.11,5.5s5.11-1.73,5.11-5.5Zm8.35,17.2A1.67,1.67,0,0,1,37.19,28a1.68,1.68,0,1,1,1.62-1.66ZM38.13,21a.91.91,0,0,1-1,.82.84.84,0,0,1-.94-.82c0-5.91-.43-12.71-.43-18.61a1.37,1.37,0,1,1,2.74,0C38.53,8.31,38.13,15.11,38.13,21Z"/></svg>