<svg id="Outlined" xmlns="http://www.w3.org/2000/svg" viewBox="0 0 29 29"><defs><style>.cls-1{fill:#8477ff;}</style></defs><path class="cls-1" d="M19.88,9.12a1.24,1.24,0,0,1,0,1.76L16.27,14.5l3.61,3.62a1.24,1.24,0,0,1,0,1.76,1.23,1.23,0,0,1-1.76,0L14.5,16.27l-3.62,3.61a1.23,1.23,0,0,1-1.76,0,1.24,1.24,0,0,1,0-1.76l3.61-3.62L9.12,10.88a1.24,1.24,0,0,1,1.76-1.76l3.62,3.61,3.62-3.61A1.24,1.24,0,0,1,19.88,9.12ZM28,9.74v9.52a2,2,0,0,1-.59,1.42l-6.73,6.73a2,2,0,0,1-1.42.59H9.74a2,2,0,0,1-1.42-.59L1.59,20.68A2,2,0,0,1,1,19.26V9.74a2,2,0,0,1,.59-1.42L8.32,1.59A2,2,0,0,1,9.74,1h9.52a2,2,0,0,1,1.42.59l6.73,6.73A2,2,0,0,1,28,9.74Zm-2,0L19.26,3H9.74L3,9.74v9.52L9.74,26h9.52L26,19.26Z"/></svg>