<svg id="Outlined" xmlns="http://www.w3.org/2000/svg" viewBox="0 0 29 29"><defs><style>.cls-1{fill:#8477ff;}</style></defs><path class="cls-1" d="M27,27.29H2a2,2,0,0,1-1.73-3L12.77,2.64a2,2,0,0,1,3.46,0l12.5,21.65a2,2,0,0,1-1.73,3ZM14.5,3.64h0L2,25.29H27L14.5,3.64Zm-.87-.5h0Zm-.32,14.53c0,.58.46.95,1.2.95a1.07,1.07,0,0,0,1.18-.95c0-1,.05-2.13.11-3.27s.11-2.32.11-3.28a1.27,1.27,0,0,0-1.4-1.23,1.28,1.28,0,0,0-1.42,1.23c0,1,.06,2.14.11,3.28S13.31,16.72,13.31,17.67Zm1.21,2.27A1.47,1.47,0,0,0,13,21.43a1.48,1.48,0,1,0,1.48-1.49Z"/></svg>